<mxfile host="Electron" modified="2023-12-18T15:09:30.301Z" agent="Mozilla/5.0 (Windows NT 10.0; Win64; x64) AppleWebKit/537.36 (KHTML, like Gecko) draw.io/21.8.2 Chrome/114.0.5735.289 Electron/25.8.1 Safari/537.36" etag="ChJREL2uoPLMHfa4pyWS" version="21.8.2" type="device" pages="6">
  <diagram name="Notifications" id="BUdD_qabjN34x75MqszJ">
    <mxGraphModel dx="1178" dy="628" grid="1" gridSize="10" guides="1" tooltips="1" connect="1" arrows="1" fold="1" page="1" pageScale="1" pageWidth="850" pageHeight="1100" math="0" shadow="0">
      <root>
        <mxCell id="0" />
        <mxCell id="1" parent="0" />
        <mxCell id="46msuWb730JVjnmSOR4C-48" value="Member" style="html=1;whiteSpace=wrap;" vertex="1" parent="1">
          <mxGeometry x="75" y="120" width="110" height="50" as="geometry" />
        </mxCell>
        <mxCell id="46msuWb730JVjnmSOR4C-49" style="edgeStyle=orthogonalEdgeStyle;rounded=0;orthogonalLoop=1;jettySize=auto;html=1;endArrow=none;endFill=0;dashed=1;" edge="1" parent="1" source="46msuWb730JVjnmSOR4C-50">
          <mxGeometry relative="1" as="geometry">
            <mxPoint x="500" y="600" as="targetPoint" />
            <Array as="points">
              <mxPoint x="500" y="600" />
            </Array>
          </mxGeometry>
        </mxCell>
        <mxCell id="46msuWb730JVjnmSOR4C-50" value="SendNotificationUI" style="html=1;whiteSpace=wrap;" vertex="1" parent="1">
          <mxGeometry x="445" y="120" width="110" height="50" as="geometry" />
        </mxCell>
        <mxCell id="46msuWb730JVjnmSOR4C-51" value="" style="shape=umlActor;verticalLabelPosition=bottom;verticalAlign=top;html=1;" vertex="1" parent="1">
          <mxGeometry x="115" y="50" width="30" height="60" as="geometry" />
        </mxCell>
        <mxCell id="46msuWb730JVjnmSOR4C-52" style="edgeStyle=orthogonalEdgeStyle;rounded=0;orthogonalLoop=1;jettySize=auto;html=1;exitX=0;exitY=1;exitDx=0;exitDy=0;endArrow=none;endFill=0;dashed=1;" edge="1" parent="1" source="46msuWb730JVjnmSOR4C-48">
          <mxGeometry relative="1" as="geometry">
            <mxPoint x="75" y="610" as="targetPoint" />
            <Array as="points">
              <mxPoint x="75" y="450" />
              <mxPoint x="75" y="450" />
            </Array>
          </mxGeometry>
        </mxCell>
        <mxCell id="46msuWb730JVjnmSOR4C-53" value="" style="endArrow=classic;html=1;rounded=0;" edge="1" parent="1">
          <mxGeometry width="50" height="50" relative="1" as="geometry">
            <mxPoint x="75" y="190" as="sourcePoint" />
            <mxPoint x="499" y="190" as="targetPoint" />
          </mxGeometry>
        </mxCell>
        <mxCell id="46msuWb730JVjnmSOR4C-54" value="selectUser(User)" style="edgeLabel;html=1;align=center;verticalAlign=middle;resizable=0;points=[];" vertex="1" connectable="0" parent="46msuWb730JVjnmSOR4C-53">
          <mxGeometry x="0.006" relative="1" as="geometry">
            <mxPoint as="offset" />
          </mxGeometry>
        </mxCell>
        <mxCell id="46msuWb730JVjnmSOR4C-55" value="" style="endArrow=none;html=1;rounded=0;startArrow=open;startFill=0;endFill=0;dashed=1;" edge="1" parent="1">
          <mxGeometry width="50" height="50" relative="1" as="geometry">
            <mxPoint x="76" y="267" as="sourcePoint" />
            <mxPoint x="495" y="267" as="targetPoint" />
          </mxGeometry>
        </mxCell>
        <mxCell id="46msuWb730JVjnmSOR4C-56" value="get notificaition name, time,&amp;nbsp; and time limit&amp;nbsp;" style="edgeLabel;html=1;align=center;verticalAlign=middle;resizable=0;points=[];" vertex="1" connectable="0" parent="46msuWb730JVjnmSOR4C-55">
          <mxGeometry x="0.006" relative="1" as="geometry">
            <mxPoint as="offset" />
          </mxGeometry>
        </mxCell>
        <mxCell id="46msuWb730JVjnmSOR4C-57" value="" style="endArrow=classic;html=1;rounded=0;" edge="1" parent="1">
          <mxGeometry width="50" height="50" relative="1" as="geometry">
            <mxPoint x="76" y="297" as="sourcePoint" />
            <mxPoint x="500" y="296" as="targetPoint" />
          </mxGeometry>
        </mxCell>
        <mxCell id="46msuWb730JVjnmSOR4C-58" value="selectOrder(Order)" style="edgeLabel;html=1;align=center;verticalAlign=middle;resizable=0;points=[];" vertex="1" connectable="0" parent="46msuWb730JVjnmSOR4C-57">
          <mxGeometry x="0.006" relative="1" as="geometry">
            <mxPoint as="offset" />
          </mxGeometry>
        </mxCell>
        <mxCell id="46msuWb730JVjnmSOR4C-59" value="" style="endArrow=none;html=1;rounded=0;startArrow=open;startFill=0;endFill=0;dashed=1;" edge="1" parent="1">
          <mxGeometry width="50" height="50" relative="1" as="geometry">
            <mxPoint x="75" y="320" as="sourcePoint" />
            <mxPoint x="499" y="320" as="targetPoint" />
          </mxGeometry>
        </mxCell>
        <mxCell id="46msuWb730JVjnmSOR4C-60" value="activated send button" style="edgeLabel;html=1;align=center;verticalAlign=middle;resizable=0;points=[];" vertex="1" connectable="0" parent="46msuWb730JVjnmSOR4C-59">
          <mxGeometry x="0.006" relative="1" as="geometry">
            <mxPoint as="offset" />
          </mxGeometry>
        </mxCell>
        <mxCell id="46msuWb730JVjnmSOR4C-61" value="" style="endArrow=classic;html=1;rounded=0;" edge="1" parent="1">
          <mxGeometry width="50" height="50" relative="1" as="geometry">
            <mxPoint x="75" y="350.52" as="sourcePoint" />
            <mxPoint x="499" y="350" as="targetPoint" />
          </mxGeometry>
        </mxCell>
        <mxCell id="46msuWb730JVjnmSOR4C-62" value="confiirmOrder(Order)" style="edgeLabel;html=1;align=center;verticalAlign=middle;resizable=0;points=[];" vertex="1" connectable="0" parent="46msuWb730JVjnmSOR4C-61">
          <mxGeometry x="0.006" relative="1" as="geometry">
            <mxPoint as="offset" />
          </mxGeometry>
        </mxCell>
        <mxCell id="46msuWb730JVjnmSOR4C-63" value="" style="endArrow=none;html=1;rounded=0;startArrow=open;startFill=0;endFill=0;dashed=1;" edge="1" parent="1">
          <mxGeometry width="50" height="50" relative="1" as="geometry">
            <mxPoint x="75" y="446" as="sourcePoint" />
            <mxPoint x="810" y="446" as="targetPoint" />
          </mxGeometry>
        </mxCell>
        <mxCell id="46msuWb730JVjnmSOR4C-64" value="updated notification with new notification message" style="edgeLabel;html=1;align=center;verticalAlign=middle;resizable=0;points=[];" vertex="1" connectable="0" parent="46msuWb730JVjnmSOR4C-63">
          <mxGeometry x="0.006" relative="1" as="geometry">
            <mxPoint x="-65" as="offset" />
          </mxGeometry>
        </mxCell>
        <mxCell id="46msuWb730JVjnmSOR4C-65" value="" style="endArrow=open;html=1;strokeWidth=1;rounded=0;endFill=0;" edge="1" parent="1">
          <mxGeometry width="50" height="50" relative="1" as="geometry">
            <mxPoint x="650" y="590" as="sourcePoint" />
            <mxPoint x="1230" y="590" as="targetPoint" />
          </mxGeometry>
        </mxCell>
        <mxCell id="46msuWb730JVjnmSOR4C-66" value="sendNotification(notification, member)" style="edgeLabel;html=1;align=center;verticalAlign=middle;resizable=0;points=[];" vertex="1" connectable="0" parent="46msuWb730JVjnmSOR4C-65">
          <mxGeometry x="-0.171" y="-1" relative="1" as="geometry">
            <mxPoint x="-16" y="-1" as="offset" />
          </mxGeometry>
        </mxCell>
        <mxCell id="46msuWb730JVjnmSOR4C-67" style="edgeStyle=orthogonalEdgeStyle;rounded=0;orthogonalLoop=1;jettySize=auto;html=1;dashed=1;endArrow=none;endFill=0;" edge="1" parent="1" source="46msuWb730JVjnmSOR4C-68">
          <mxGeometry relative="1" as="geometry">
            <mxPoint x="1228" y="591" as="targetPoint" />
          </mxGeometry>
        </mxCell>
        <mxCell id="46msuWb730JVjnmSOR4C-68" value="NotificationUI" style="html=1;whiteSpace=wrap;" vertex="1" parent="1">
          <mxGeometry x="1173" y="215" width="110" height="50" as="geometry" />
        </mxCell>
        <mxCell id="46msuWb730JVjnmSOR4C-69" value="&lt;font style=&quot;font-size: 14px;&quot;&gt;Case:&lt;br&gt;Send Notification&lt;/font&gt;" style="text;html=1;align=center;verticalAlign=middle;resizable=0;points=[];autosize=1;strokeColor=none;fillColor=none;" vertex="1" parent="1">
          <mxGeometry x="240" y="100" width="130" height="50" as="geometry" />
        </mxCell>
        <mxCell id="46msuWb730JVjnmSOR4C-70" style="edgeStyle=orthogonalEdgeStyle;rounded=0;orthogonalLoop=1;jettySize=auto;html=1;endArrow=none;endFill=0;dashed=1;" edge="1" parent="1" source="46msuWb730JVjnmSOR4C-71">
          <mxGeometry relative="1" as="geometry">
            <mxPoint x="650" y="600" as="targetPoint" />
            <Array as="points">
              <mxPoint x="650" y="600" />
            </Array>
          </mxGeometry>
        </mxCell>
        <mxCell id="46msuWb730JVjnmSOR4C-71" value="&amp;lt;&amp;lt;controller&amp;gt;&amp;gt;&lt;br&gt;SendNotificationController" style="html=1;whiteSpace=wrap;" vertex="1" parent="1">
          <mxGeometry x="580" y="120" width="140" height="50" as="geometry" />
        </mxCell>
        <mxCell id="46msuWb730JVjnmSOR4C-72" style="edgeStyle=orthogonalEdgeStyle;rounded=0;orthogonalLoop=1;jettySize=auto;html=1;endArrow=none;endFill=0;dashed=1;" edge="1" parent="1">
          <mxGeometry relative="1" as="geometry">
            <mxPoint x="990" y="590" as="targetPoint" />
            <Array as="points">
              <mxPoint x="990" y="600" />
            </Array>
            <mxPoint x="990" y="170.0000000000001" as="sourcePoint" />
          </mxGeometry>
        </mxCell>
        <mxCell id="46msuWb730JVjnmSOR4C-73" value="Notification" style="html=1;whiteSpace=wrap;" vertex="1" parent="1">
          <mxGeometry x="946" y="130" width="88" height="40" as="geometry" />
        </mxCell>
        <mxCell id="46msuWb730JVjnmSOR4C-74" style="edgeStyle=orthogonalEdgeStyle;rounded=0;orthogonalLoop=1;jettySize=auto;html=1;endArrow=none;endFill=0;dashed=1;" edge="1" parent="1">
          <mxGeometry relative="1" as="geometry">
            <mxPoint x="1123" y="590" as="targetPoint" />
            <Array as="points">
              <mxPoint x="1123" y="600" />
            </Array>
            <mxPoint x="1123" y="170.0000000000001" as="sourcePoint" />
          </mxGeometry>
        </mxCell>
        <mxCell id="46msuWb730JVjnmSOR4C-75" value="&amp;lt;&amp;lt;entity&amp;gt;&amp;gt;&lt;br&gt;Notification" style="html=1;whiteSpace=wrap;" vertex="1" parent="1">
          <mxGeometry x="1063" y="120" width="110" height="50" as="geometry" />
        </mxCell>
        <mxCell id="46msuWb730JVjnmSOR4C-76" style="edgeStyle=orthogonalEdgeStyle;rounded=0;orthogonalLoop=1;jettySize=auto;html=1;endArrow=none;endFill=0;dashed=1;" edge="1" parent="1">
          <mxGeometry relative="1" as="geometry">
            <mxPoint x="812" y="590" as="targetPoint" />
            <Array as="points">
              <mxPoint x="812" y="600" />
            </Array>
            <mxPoint x="812" y="170.0000000000001" as="sourcePoint" />
          </mxGeometry>
        </mxCell>
        <mxCell id="46msuWb730JVjnmSOR4C-77" value="&amp;lt;&amp;lt;entity&amp;gt;&amp;gt;&lt;br&gt;NotificationPage" style="html=1;whiteSpace=wrap;" vertex="1" parent="1">
          <mxGeometry x="755" y="119" width="110" height="50" as="geometry" />
        </mxCell>
        <mxCell id="46msuWb730JVjnmSOR4C-78" value="" style="endArrow=classic;html=1;rounded=0;" edge="1" parent="1">
          <mxGeometry width="50" height="50" relative="1" as="geometry">
            <mxPoint x="500" y="215" as="sourcePoint" />
            <mxPoint x="650" y="215" as="targetPoint" />
          </mxGeometry>
        </mxCell>
        <mxCell id="46msuWb730JVjnmSOR4C-79" value="selectUser(User)" style="edgeLabel;html=1;align=center;verticalAlign=middle;resizable=0;points=[];" vertex="1" connectable="0" parent="46msuWb730JVjnmSOR4C-78">
          <mxGeometry x="0.006" relative="1" as="geometry">
            <mxPoint as="offset" />
          </mxGeometry>
        </mxCell>
        <mxCell id="46msuWb730JVjnmSOR4C-80" value="" style="endArrow=classic;html=1;rounded=0;" edge="1" parent="1">
          <mxGeometry width="50" height="50" relative="1" as="geometry">
            <mxPoint x="650" y="230" as="sourcePoint" />
            <mxPoint x="810" y="230" as="targetPoint" />
          </mxGeometry>
        </mxCell>
        <mxCell id="46msuWb730JVjnmSOR4C-81" value="selectChannel(channel)" style="edgeLabel;html=1;align=center;verticalAlign=middle;resizable=0;points=[];" vertex="1" connectable="0" parent="46msuWb730JVjnmSOR4C-80">
          <mxGeometry x="0.006" relative="1" as="geometry">
            <mxPoint as="offset" />
          </mxGeometry>
        </mxCell>
        <mxCell id="46msuWb730JVjnmSOR4C-82" value="" style="endArrow=classic;html=1;rounded=0;" edge="1" parent="1">
          <mxGeometry width="50" height="50" relative="1" as="geometry">
            <mxPoint x="810" y="250" as="sourcePoint" />
            <mxPoint x="990" y="250" as="targetPoint" />
          </mxGeometry>
        </mxCell>
        <mxCell id="46msuWb730JVjnmSOR4C-83" value="notificationFeed = getnotificationFeed" style="edgeLabel;html=1;align=center;verticalAlign=middle;resizable=0;points=[];" vertex="1" connectable="0" parent="46msuWb730JVjnmSOR4C-82">
          <mxGeometry x="0.006" relative="1" as="geometry">
            <mxPoint y="-10" as="offset" />
          </mxGeometry>
        </mxCell>
        <mxCell id="46msuWb730JVjnmSOR4C-84" value="" style="endArrow=none;html=1;rounded=0;startArrow=classic;startFill=1;endFill=0;dashed=1;" edge="1" parent="1">
          <mxGeometry width="50" height="50" relative="1" as="geometry">
            <mxPoint x="650" y="250" as="sourcePoint" />
            <mxPoint x="810" y="250" as="targetPoint" />
          </mxGeometry>
        </mxCell>
        <mxCell id="46msuWb730JVjnmSOR4C-85" value="notificationFeed" style="edgeLabel;html=1;align=center;verticalAlign=middle;resizable=0;points=[];" vertex="1" connectable="0" parent="46msuWb730JVjnmSOR4C-84">
          <mxGeometry x="0.006" relative="1" as="geometry">
            <mxPoint as="offset" />
          </mxGeometry>
        </mxCell>
        <mxCell id="46msuWb730JVjnmSOR4C-86" value="" style="endArrow=none;html=1;rounded=0;startArrow=classic;startFill=1;endFill=0;dashed=1;" edge="1" parent="1">
          <mxGeometry width="50" height="50" relative="1" as="geometry">
            <mxPoint x="500" y="250" as="sourcePoint" />
            <mxPoint x="650" y="250" as="targetPoint" />
          </mxGeometry>
        </mxCell>
        <mxCell id="46msuWb730JVjnmSOR4C-87" value="notificationFeed" style="edgeLabel;html=1;align=center;verticalAlign=middle;resizable=0;points=[];" vertex="1" connectable="0" parent="46msuWb730JVjnmSOR4C-86">
          <mxGeometry x="0.006" relative="1" as="geometry">
            <mxPoint as="offset" />
          </mxGeometry>
        </mxCell>
        <mxCell id="46msuWb730JVjnmSOR4C-88" value="" style="endArrow=classic;html=1;rounded=0;" edge="1" parent="1">
          <mxGeometry width="50" height="50" relative="1" as="geometry">
            <mxPoint x="500" y="380.52" as="sourcePoint" />
            <mxPoint x="650" y="380" as="targetPoint" />
          </mxGeometry>
        </mxCell>
        <mxCell id="46msuWb730JVjnmSOR4C-89" value="sendNotification(Notification)" style="edgeLabel;html=1;align=center;verticalAlign=middle;resizable=0;points=[];" vertex="1" connectable="0" parent="46msuWb730JVjnmSOR4C-88">
          <mxGeometry x="0.006" relative="1" as="geometry">
            <mxPoint as="offset" />
          </mxGeometry>
        </mxCell>
        <mxCell id="46msuWb730JVjnmSOR4C-90" value="" style="endArrow=classic;html=1;rounded=0;" edge="1" parent="1">
          <mxGeometry width="50" height="50" relative="1" as="geometry">
            <mxPoint x="650" y="400.52" as="sourcePoint" />
            <mxPoint x="990" y="400" as="targetPoint" />
          </mxGeometry>
        </mxCell>
        <mxCell id="46msuWb730JVjnmSOR4C-91" value="notification= createNotification(Notification)" style="edgeLabel;html=1;align=center;verticalAlign=middle;resizable=0;points=[];" vertex="1" connectable="0" parent="46msuWb730JVjnmSOR4C-90">
          <mxGeometry x="0.006" relative="1" as="geometry">
            <mxPoint as="offset" />
          </mxGeometry>
        </mxCell>
        <mxCell id="46msuWb730JVjnmSOR4C-92" value="" style="endArrow=classic;html=1;rounded=0;" edge="1" parent="1">
          <mxGeometry width="50" height="50" relative="1" as="geometry">
            <mxPoint x="650" y="420.52" as="sourcePoint" />
            <mxPoint x="810" y="420" as="targetPoint" />
          </mxGeometry>
        </mxCell>
        <mxCell id="46msuWb730JVjnmSOR4C-93" value="addNotificaiton(Notification)" style="edgeLabel;html=1;align=center;verticalAlign=middle;resizable=0;points=[];" vertex="1" connectable="0" parent="46msuWb730JVjnmSOR4C-92">
          <mxGeometry x="0.006" relative="1" as="geometry">
            <mxPoint as="offset" />
          </mxGeometry>
        </mxCell>
        <mxCell id="46msuWb730JVjnmSOR4C-94" value="" style="endArrow=classic;html=1;rounded=0;" edge="1" parent="1">
          <mxGeometry width="50" height="50" relative="1" as="geometry">
            <mxPoint x="650" y="510.52" as="sourcePoint" />
            <mxPoint x="1120" y="510" as="targetPoint" />
          </mxGeometry>
        </mxCell>
        <mxCell id="46msuWb730JVjnmSOR4C-95" value="createNotification(notification)" style="edgeLabel;html=1;align=center;verticalAlign=middle;resizable=0;points=[];" vertex="1" connectable="0" parent="46msuWb730JVjnmSOR4C-94">
          <mxGeometry x="0.006" relative="1" as="geometry">
            <mxPoint as="offset" />
          </mxGeometry>
        </mxCell>
        <mxCell id="46msuWb730JVjnmSOR4C-98" value="" style="shape=umlActor;verticalLabelPosition=bottom;verticalAlign=top;html=1;outlineConnect=0;" vertex="1" parent="1">
          <mxGeometry x="1350" y="140" width="30" height="60" as="geometry" />
        </mxCell>
        <mxCell id="46msuWb730JVjnmSOR4C-99" style="edgeStyle=orthogonalEdgeStyle;rounded=0;orthogonalLoop=1;jettySize=auto;html=1;dashed=1;endArrow=none;endFill=0;" edge="1" parent="1" source="46msuWb730JVjnmSOR4C-100">
          <mxGeometry relative="1" as="geometry">
            <mxPoint x="1355" y="591.4814814814815" as="targetPoint" />
          </mxGeometry>
        </mxCell>
        <mxCell id="46msuWb730JVjnmSOR4C-100" value="SuperEats Notifications" style="html=1;whiteSpace=wrap;" vertex="1" parent="1">
          <mxGeometry x="1300" y="215" width="110" height="50" as="geometry" />
        </mxCell>
        <mxCell id="46msuWb730JVjnmSOR4C-101" value="" style="endArrow=classic;html=1;rounded=0;" edge="1" parent="1">
          <mxGeometry width="50" height="50" relative="1" as="geometry">
            <mxPoint x="1227" y="549" as="sourcePoint" />
            <mxPoint x="1360" y="549" as="targetPoint" />
          </mxGeometry>
        </mxCell>
        <mxCell id="46msuWb730JVjnmSOR4C-102" value="notification" style="edgeLabel;html=1;align=center;verticalAlign=middle;resizable=0;points=[];" vertex="1" connectable="0" parent="46msuWb730JVjnmSOR4C-101">
          <mxGeometry x="0.006" relative="1" as="geometry">
            <mxPoint y="-10" as="offset" />
          </mxGeometry>
        </mxCell>
      </root>
    </mxGraphModel>
  </diagram>
  <diagram id="qCN8LADSY3E66zlJ_elO" name="Order">
    <mxGraphModel dx="1178" dy="628" grid="1" gridSize="10" guides="1" tooltips="1" connect="1" arrows="1" fold="1" page="1" pageScale="1" pageWidth="850" pageHeight="1100" math="0" shadow="0">
      <root>
        <mxCell id="0" />
        <mxCell id="1" parent="0" />
        <mxCell id="ulBuNDBIgfWJJ-5xJcM2-1" value="Member" style="html=1;whiteSpace=wrap;" vertex="1" parent="1">
          <mxGeometry x="75" y="120" width="110" height="50" as="geometry" />
        </mxCell>
        <mxCell id="ulBuNDBIgfWJJ-5xJcM2-2" style="edgeStyle=orthogonalEdgeStyle;rounded=0;orthogonalLoop=1;jettySize=auto;html=1;endArrow=none;endFill=0;dashed=1;" edge="1" parent="1" source="ulBuNDBIgfWJJ-5xJcM2-3">
          <mxGeometry relative="1" as="geometry">
            <mxPoint x="500" y="600" as="targetPoint" />
            <Array as="points">
              <mxPoint x="500" y="600" />
            </Array>
          </mxGeometry>
        </mxCell>
        <mxCell id="ulBuNDBIgfWJJ-5xJcM2-3" value="CreateOrderUI" style="html=1;whiteSpace=wrap;" vertex="1" parent="1">
          <mxGeometry x="445" y="120" width="110" height="50" as="geometry" />
        </mxCell>
        <mxCell id="ulBuNDBIgfWJJ-5xJcM2-4" value="" style="shape=umlActor;verticalLabelPosition=bottom;verticalAlign=top;html=1;" vertex="1" parent="1">
          <mxGeometry x="115" y="50" width="30" height="60" as="geometry" />
        </mxCell>
        <mxCell id="ulBuNDBIgfWJJ-5xJcM2-5" style="edgeStyle=orthogonalEdgeStyle;rounded=0;orthogonalLoop=1;jettySize=auto;html=1;exitX=0;exitY=1;exitDx=0;exitDy=0;endArrow=none;endFill=0;dashed=1;" edge="1" parent="1" source="ulBuNDBIgfWJJ-5xJcM2-1">
          <mxGeometry relative="1" as="geometry">
            <mxPoint x="75" y="610" as="targetPoint" />
            <Array as="points">
              <mxPoint x="75" y="450" />
              <mxPoint x="75" y="450" />
            </Array>
          </mxGeometry>
        </mxCell>
        <mxCell id="ulBuNDBIgfWJJ-5xJcM2-6" value="" style="endArrow=classic;html=1;rounded=0;" edge="1" parent="1">
          <mxGeometry width="50" height="50" relative="1" as="geometry">
            <mxPoint x="75" y="190" as="sourcePoint" />
            <mxPoint x="499" y="190" as="targetPoint" />
          </mxGeometry>
        </mxCell>
        <mxCell id="ulBuNDBIgfWJJ-5xJcM2-7" value="selectOrder(Order)" style="edgeLabel;html=1;align=center;verticalAlign=middle;resizable=0;points=[];" vertex="1" connectable="0" parent="ulBuNDBIgfWJJ-5xJcM2-6">
          <mxGeometry x="0.006" relative="1" as="geometry">
            <mxPoint as="offset" />
          </mxGeometry>
        </mxCell>
        <mxCell id="ulBuNDBIgfWJJ-5xJcM2-8" value="" style="endArrow=none;html=1;rounded=0;startArrow=open;startFill=0;endFill=0;dashed=1;" edge="1" parent="1">
          <mxGeometry width="50" height="50" relative="1" as="geometry">
            <mxPoint x="76" y="267" as="sourcePoint" />
            <mxPoint x="495" y="267" as="targetPoint" />
          </mxGeometry>
        </mxCell>
        <mxCell id="ulBuNDBIgfWJJ-5xJcM2-9" value="Order contents" style="edgeLabel;html=1;align=center;verticalAlign=middle;resizable=0;points=[];" vertex="1" connectable="0" parent="ulBuNDBIgfWJJ-5xJcM2-8">
          <mxGeometry x="0.006" relative="1" as="geometry">
            <mxPoint as="offset" />
          </mxGeometry>
        </mxCell>
        <mxCell id="ulBuNDBIgfWJJ-5xJcM2-10" value="" style="endArrow=classic;html=1;rounded=0;" edge="1" parent="1">
          <mxGeometry width="50" height="50" relative="1" as="geometry">
            <mxPoint x="76" y="297" as="sourcePoint" />
            <mxPoint x="500" y="296" as="targetPoint" />
          </mxGeometry>
        </mxCell>
        <mxCell id="ulBuNDBIgfWJJ-5xJcM2-11" value="generateOrder(Order)" style="edgeLabel;html=1;align=center;verticalAlign=middle;resizable=0;points=[];" vertex="1" connectable="0" parent="ulBuNDBIgfWJJ-5xJcM2-10">
          <mxGeometry x="0.006" relative="1" as="geometry">
            <mxPoint as="offset" />
          </mxGeometry>
        </mxCell>
        <mxCell id="ulBuNDBIgfWJJ-5xJcM2-12" value="" style="endArrow=none;html=1;rounded=0;startArrow=open;startFill=0;endFill=0;dashed=1;" edge="1" parent="1">
          <mxGeometry width="50" height="50" relative="1" as="geometry">
            <mxPoint x="75" y="320" as="sourcePoint" />
            <mxPoint x="499" y="320" as="targetPoint" />
          </mxGeometry>
        </mxCell>
        <mxCell id="ulBuNDBIgfWJJ-5xJcM2-13" value="activated send button" style="edgeLabel;html=1;align=center;verticalAlign=middle;resizable=0;points=[];" vertex="1" connectable="0" parent="ulBuNDBIgfWJJ-5xJcM2-12">
          <mxGeometry x="0.006" relative="1" as="geometry">
            <mxPoint as="offset" />
          </mxGeometry>
        </mxCell>
        <mxCell id="ulBuNDBIgfWJJ-5xJcM2-14" value="" style="endArrow=classic;html=1;rounded=0;" edge="1" parent="1">
          <mxGeometry width="50" height="50" relative="1" as="geometry">
            <mxPoint x="75" y="350.52" as="sourcePoint" />
            <mxPoint x="499" y="350" as="targetPoint" />
          </mxGeometry>
        </mxCell>
        <mxCell id="ulBuNDBIgfWJJ-5xJcM2-15" value="setOrder(Order)" style="edgeLabel;html=1;align=center;verticalAlign=middle;resizable=0;points=[];" vertex="1" connectable="0" parent="ulBuNDBIgfWJJ-5xJcM2-14">
          <mxGeometry x="0.006" relative="1" as="geometry">
            <mxPoint as="offset" />
          </mxGeometry>
        </mxCell>
        <mxCell id="ulBuNDBIgfWJJ-5xJcM2-16" value="" style="endArrow=none;html=1;rounded=0;startArrow=open;startFill=0;endFill=0;dashed=1;" edge="1" parent="1">
          <mxGeometry width="50" height="50" relative="1" as="geometry">
            <mxPoint x="75" y="446" as="sourcePoint" />
            <mxPoint x="810" y="446" as="targetPoint" />
          </mxGeometry>
        </mxCell>
        <mxCell id="ulBuNDBIgfWJJ-5xJcM2-17" value="update order status&amp;nbsp;" style="edgeLabel;html=1;align=center;verticalAlign=middle;resizable=0;points=[];" vertex="1" connectable="0" parent="ulBuNDBIgfWJJ-5xJcM2-16">
          <mxGeometry x="0.006" relative="1" as="geometry">
            <mxPoint x="-65" as="offset" />
          </mxGeometry>
        </mxCell>
        <mxCell id="ulBuNDBIgfWJJ-5xJcM2-18" value="" style="endArrow=open;html=1;strokeWidth=1;rounded=0;endFill=0;" edge="1" parent="1">
          <mxGeometry width="50" height="50" relative="1" as="geometry">
            <mxPoint x="650" y="590" as="sourcePoint" />
            <mxPoint x="1230" y="590" as="targetPoint" />
          </mxGeometry>
        </mxCell>
        <mxCell id="ulBuNDBIgfWJJ-5xJcM2-19" value="sendNotification(notification, order)" style="edgeLabel;html=1;align=center;verticalAlign=middle;resizable=0;points=[];" vertex="1" connectable="0" parent="ulBuNDBIgfWJJ-5xJcM2-18">
          <mxGeometry x="-0.171" y="-1" relative="1" as="geometry">
            <mxPoint x="-16" y="-1" as="offset" />
          </mxGeometry>
        </mxCell>
        <mxCell id="ulBuNDBIgfWJJ-5xJcM2-20" style="edgeStyle=orthogonalEdgeStyle;rounded=0;orthogonalLoop=1;jettySize=auto;html=1;dashed=1;endArrow=none;endFill=0;" edge="1" parent="1" source="ulBuNDBIgfWJJ-5xJcM2-21">
          <mxGeometry relative="1" as="geometry">
            <mxPoint x="1228" y="591" as="targetPoint" />
          </mxGeometry>
        </mxCell>
        <mxCell id="ulBuNDBIgfWJJ-5xJcM2-21" value="OrderUI" style="html=1;whiteSpace=wrap;" vertex="1" parent="1">
          <mxGeometry x="1173" y="215" width="110" height="50" as="geometry" />
        </mxCell>
        <mxCell id="ulBuNDBIgfWJJ-5xJcM2-22" value="&lt;font style=&quot;font-size: 14px;&quot;&gt;Case:&lt;br&gt;Send Order&lt;/font&gt;" style="text;html=1;align=center;verticalAlign=middle;resizable=0;points=[];autosize=1;strokeColor=none;fillColor=none;" vertex="1" parent="1">
          <mxGeometry x="255" y="100" width="100" height="50" as="geometry" />
        </mxCell>
        <mxCell id="ulBuNDBIgfWJJ-5xJcM2-23" style="edgeStyle=orthogonalEdgeStyle;rounded=0;orthogonalLoop=1;jettySize=auto;html=1;endArrow=none;endFill=0;dashed=1;" edge="1" parent="1" source="ulBuNDBIgfWJJ-5xJcM2-24">
          <mxGeometry relative="1" as="geometry">
            <mxPoint x="650" y="600" as="targetPoint" />
            <Array as="points">
              <mxPoint x="650" y="600" />
            </Array>
          </mxGeometry>
        </mxCell>
        <mxCell id="ulBuNDBIgfWJJ-5xJcM2-24" value="&amp;lt;&amp;lt;controller&amp;gt;&amp;gt;&lt;br&gt;getOrderID" style="html=1;whiteSpace=wrap;" vertex="1" parent="1">
          <mxGeometry x="580" y="120" width="140" height="50" as="geometry" />
        </mxCell>
        <mxCell id="ulBuNDBIgfWJJ-5xJcM2-25" style="edgeStyle=orthogonalEdgeStyle;rounded=0;orthogonalLoop=1;jettySize=auto;html=1;endArrow=none;endFill=0;dashed=1;" edge="1" parent="1">
          <mxGeometry relative="1" as="geometry">
            <mxPoint x="990" y="590" as="targetPoint" />
            <Array as="points">
              <mxPoint x="990" y="600" />
            </Array>
            <mxPoint x="990" y="170.0000000000001" as="sourcePoint" />
          </mxGeometry>
        </mxCell>
        <mxCell id="ulBuNDBIgfWJJ-5xJcM2-26" value="&amp;lt;&amp;lt;entity&amp;gt;&amp;gt;&lt;br&gt;OrderMessage" style="html=1;whiteSpace=wrap;" vertex="1" parent="1">
          <mxGeometry x="946" y="130" width="88" height="40" as="geometry" />
        </mxCell>
        <mxCell id="ulBuNDBIgfWJJ-5xJcM2-27" style="edgeStyle=orthogonalEdgeStyle;rounded=0;orthogonalLoop=1;jettySize=auto;html=1;endArrow=none;endFill=0;dashed=1;" edge="1" parent="1">
          <mxGeometry relative="1" as="geometry">
            <mxPoint x="1123" y="590" as="targetPoint" />
            <Array as="points">
              <mxPoint x="1123" y="600" />
            </Array>
            <mxPoint x="1123" y="170.0000000000001" as="sourcePoint" />
          </mxGeometry>
        </mxCell>
        <mxCell id="ulBuNDBIgfWJJ-5xJcM2-28" value="&amp;lt;&amp;lt;entity&amp;gt;&amp;gt;&lt;br&gt;Notification" style="html=1;whiteSpace=wrap;" vertex="1" parent="1">
          <mxGeometry x="1063" y="120" width="110" height="50" as="geometry" />
        </mxCell>
        <mxCell id="ulBuNDBIgfWJJ-5xJcM2-29" style="edgeStyle=orthogonalEdgeStyle;rounded=0;orthogonalLoop=1;jettySize=auto;html=1;endArrow=none;endFill=0;dashed=1;" edge="1" parent="1">
          <mxGeometry relative="1" as="geometry">
            <mxPoint x="812" y="590" as="targetPoint" />
            <Array as="points">
              <mxPoint x="812" y="600" />
            </Array>
            <mxPoint x="812" y="170.0000000000001" as="sourcePoint" />
          </mxGeometry>
        </mxCell>
        <mxCell id="ulBuNDBIgfWJJ-5xJcM2-30" value="&amp;lt;&amp;lt;entity&amp;gt;&amp;gt;&lt;br&gt;Order Status" style="html=1;whiteSpace=wrap;" vertex="1" parent="1">
          <mxGeometry x="755" y="119" width="110" height="50" as="geometry" />
        </mxCell>
        <mxCell id="ulBuNDBIgfWJJ-5xJcM2-31" value="" style="endArrow=classic;html=1;rounded=0;" edge="1" parent="1">
          <mxGeometry width="50" height="50" relative="1" as="geometry">
            <mxPoint x="500" y="215" as="sourcePoint" />
            <mxPoint x="650" y="215" as="targetPoint" />
          </mxGeometry>
        </mxCell>
        <mxCell id="ulBuNDBIgfWJJ-5xJcM2-32" value="getOrderID(Order)" style="edgeLabel;html=1;align=center;verticalAlign=middle;resizable=0;points=[];" vertex="1" connectable="0" parent="ulBuNDBIgfWJJ-5xJcM2-31">
          <mxGeometry x="0.006" relative="1" as="geometry">
            <mxPoint as="offset" />
          </mxGeometry>
        </mxCell>
        <mxCell id="ulBuNDBIgfWJJ-5xJcM2-33" value="" style="endArrow=classic;html=1;rounded=0;" edge="1" parent="1">
          <mxGeometry width="50" height="50" relative="1" as="geometry">
            <mxPoint x="650" y="230" as="sourcePoint" />
            <mxPoint x="810" y="230" as="targetPoint" />
          </mxGeometry>
        </mxCell>
        <mxCell id="ulBuNDBIgfWJJ-5xJcM2-34" value="selectChannel(channel)" style="edgeLabel;html=1;align=center;verticalAlign=middle;resizable=0;points=[];" vertex="1" connectable="0" parent="ulBuNDBIgfWJJ-5xJcM2-33">
          <mxGeometry x="0.006" relative="1" as="geometry">
            <mxPoint as="offset" />
          </mxGeometry>
        </mxCell>
        <mxCell id="ulBuNDBIgfWJJ-5xJcM2-35" value="" style="endArrow=classic;html=1;rounded=0;" edge="1" parent="1">
          <mxGeometry width="50" height="50" relative="1" as="geometry">
            <mxPoint x="810" y="250" as="sourcePoint" />
            <mxPoint x="990" y="250" as="targetPoint" />
          </mxGeometry>
        </mxCell>
        <mxCell id="ulBuNDBIgfWJJ-5xJcM2-36" value="OrderMessage= getOrderMessage" style="edgeLabel;html=1;align=center;verticalAlign=middle;resizable=0;points=[];" vertex="1" connectable="0" parent="ulBuNDBIgfWJJ-5xJcM2-35">
          <mxGeometry x="0.006" relative="1" as="geometry">
            <mxPoint y="-10" as="offset" />
          </mxGeometry>
        </mxCell>
        <mxCell id="ulBuNDBIgfWJJ-5xJcM2-37" value="" style="endArrow=none;html=1;rounded=0;startArrow=classic;startFill=1;endFill=0;dashed=1;" edge="1" parent="1">
          <mxGeometry width="50" height="50" relative="1" as="geometry">
            <mxPoint x="650" y="250" as="sourcePoint" />
            <mxPoint x="810" y="250" as="targetPoint" />
          </mxGeometry>
        </mxCell>
        <mxCell id="ulBuNDBIgfWJJ-5xJcM2-38" value="OrderMessage" style="edgeLabel;html=1;align=center;verticalAlign=middle;resizable=0;points=[];" vertex="1" connectable="0" parent="ulBuNDBIgfWJJ-5xJcM2-37">
          <mxGeometry x="0.006" relative="1" as="geometry">
            <mxPoint as="offset" />
          </mxGeometry>
        </mxCell>
        <mxCell id="ulBuNDBIgfWJJ-5xJcM2-39" value="" style="endArrow=none;html=1;rounded=0;startArrow=classic;startFill=1;endFill=0;dashed=1;" edge="1" parent="1">
          <mxGeometry width="50" height="50" relative="1" as="geometry">
            <mxPoint x="500" y="250" as="sourcePoint" />
            <mxPoint x="650" y="250" as="targetPoint" />
          </mxGeometry>
        </mxCell>
        <mxCell id="ulBuNDBIgfWJJ-5xJcM2-40" value="OrderMessage" style="edgeLabel;html=1;align=center;verticalAlign=middle;resizable=0;points=[];" vertex="1" connectable="0" parent="ulBuNDBIgfWJJ-5xJcM2-39">
          <mxGeometry x="0.006" relative="1" as="geometry">
            <mxPoint as="offset" />
          </mxGeometry>
        </mxCell>
        <mxCell id="ulBuNDBIgfWJJ-5xJcM2-41" value="" style="endArrow=classic;html=1;rounded=0;" edge="1" parent="1">
          <mxGeometry width="50" height="50" relative="1" as="geometry">
            <mxPoint x="500" y="380.52" as="sourcePoint" />
            <mxPoint x="650" y="380" as="targetPoint" />
          </mxGeometry>
        </mxCell>
        <mxCell id="ulBuNDBIgfWJJ-5xJcM2-42" value="sendOrderContents(Order)" style="edgeLabel;html=1;align=center;verticalAlign=middle;resizable=0;points=[];" vertex="1" connectable="0" parent="ulBuNDBIgfWJJ-5xJcM2-41">
          <mxGeometry x="0.006" relative="1" as="geometry">
            <mxPoint as="offset" />
          </mxGeometry>
        </mxCell>
        <mxCell id="ulBuNDBIgfWJJ-5xJcM2-43" value="" style="endArrow=classic;html=1;rounded=0;" edge="1" parent="1">
          <mxGeometry width="50" height="50" relative="1" as="geometry">
            <mxPoint x="650" y="400.52" as="sourcePoint" />
            <mxPoint x="990" y="400" as="targetPoint" />
          </mxGeometry>
        </mxCell>
        <mxCell id="ulBuNDBIgfWJJ-5xJcM2-44" value="OrderMessage = createOrderMessage" style="edgeLabel;html=1;align=center;verticalAlign=middle;resizable=0;points=[];" vertex="1" connectable="0" parent="ulBuNDBIgfWJJ-5xJcM2-43">
          <mxGeometry x="0.006" relative="1" as="geometry">
            <mxPoint as="offset" />
          </mxGeometry>
        </mxCell>
        <mxCell id="ulBuNDBIgfWJJ-5xJcM2-47" value="" style="endArrow=classic;html=1;rounded=0;" edge="1" parent="1">
          <mxGeometry width="50" height="50" relative="1" as="geometry">
            <mxPoint x="650" y="510.52" as="sourcePoint" />
            <mxPoint x="1120" y="510" as="targetPoint" />
          </mxGeometry>
        </mxCell>
        <mxCell id="ulBuNDBIgfWJJ-5xJcM2-48" value="createNotification(notification)" style="edgeLabel;html=1;align=center;verticalAlign=middle;resizable=0;points=[];" vertex="1" connectable="0" parent="ulBuNDBIgfWJJ-5xJcM2-47">
          <mxGeometry x="0.006" relative="1" as="geometry">
            <mxPoint as="offset" />
          </mxGeometry>
        </mxCell>
        <mxCell id="ulBuNDBIgfWJJ-5xJcM2-51" value="" style="shape=umlActor;verticalLabelPosition=bottom;verticalAlign=top;html=1;outlineConnect=0;" vertex="1" parent="1">
          <mxGeometry x="1350" y="140" width="30" height="60" as="geometry" />
        </mxCell>
        <mxCell id="ulBuNDBIgfWJJ-5xJcM2-52" style="edgeStyle=orthogonalEdgeStyle;rounded=0;orthogonalLoop=1;jettySize=auto;html=1;dashed=1;endArrow=none;endFill=0;" edge="1" parent="1" source="ulBuNDBIgfWJJ-5xJcM2-53">
          <mxGeometry relative="1" as="geometry">
            <mxPoint x="1355" y="591.4814814814815" as="targetPoint" />
          </mxGeometry>
        </mxCell>
        <mxCell id="ulBuNDBIgfWJJ-5xJcM2-53" value="SuperEatsOrderPage" style="html=1;whiteSpace=wrap;" vertex="1" parent="1">
          <mxGeometry x="1300" y="215" width="130" height="50" as="geometry" />
        </mxCell>
        <mxCell id="ulBuNDBIgfWJJ-5xJcM2-54" value="" style="endArrow=classic;html=1;rounded=0;" edge="1" parent="1">
          <mxGeometry width="50" height="50" relative="1" as="geometry">
            <mxPoint x="1227" y="549" as="sourcePoint" />
            <mxPoint x="1360" y="549" as="targetPoint" />
          </mxGeometry>
        </mxCell>
        <mxCell id="ulBuNDBIgfWJJ-5xJcM2-55" value="notification" style="edgeLabel;html=1;align=center;verticalAlign=middle;resizable=0;points=[];" vertex="1" connectable="0" parent="ulBuNDBIgfWJJ-5xJcM2-54">
          <mxGeometry x="0.006" relative="1" as="geometry">
            <mxPoint y="-10" as="offset" />
          </mxGeometry>
        </mxCell>
      </root>
    </mxGraphModel>
  </diagram>
  <diagram id="p540qwpA0Si2STwq7GZx" name="Search">
    <mxGraphModel dx="1178" dy="628" grid="1" gridSize="10" guides="1" tooltips="1" connect="1" arrows="1" fold="1" page="1" pageScale="1" pageWidth="850" pageHeight="1100" math="0" shadow="0">
      <root>
        <mxCell id="0" />
        <mxCell id="1" parent="0" />
        <mxCell id="sA1DfeJpiTtIdsuiIgHE-1" value="Member" style="html=1;whiteSpace=wrap;" vertex="1" parent="1">
          <mxGeometry x="75" y="120" width="110" height="50" as="geometry" />
        </mxCell>
        <mxCell id="sA1DfeJpiTtIdsuiIgHE-2" style="edgeStyle=orthogonalEdgeStyle;rounded=0;orthogonalLoop=1;jettySize=auto;html=1;endArrow=none;endFill=0;dashed=1;" edge="1" parent="1" source="sA1DfeJpiTtIdsuiIgHE-3">
          <mxGeometry relative="1" as="geometry">
            <mxPoint x="500" y="600" as="targetPoint" />
            <Array as="points">
              <mxPoint x="500" y="600" />
            </Array>
          </mxGeometry>
        </mxCell>
        <mxCell id="sA1DfeJpiTtIdsuiIgHE-3" value="getSearchResults UI" style="html=1;whiteSpace=wrap;" vertex="1" parent="1">
          <mxGeometry x="445" y="120" width="110" height="50" as="geometry" />
        </mxCell>
        <mxCell id="sA1DfeJpiTtIdsuiIgHE-4" value="" style="shape=umlActor;verticalLabelPosition=bottom;verticalAlign=top;html=1;" vertex="1" parent="1">
          <mxGeometry x="115" y="50" width="30" height="60" as="geometry" />
        </mxCell>
        <mxCell id="sA1DfeJpiTtIdsuiIgHE-5" style="edgeStyle=orthogonalEdgeStyle;rounded=0;orthogonalLoop=1;jettySize=auto;html=1;exitX=0;exitY=1;exitDx=0;exitDy=0;endArrow=none;endFill=0;dashed=1;" edge="1" parent="1" source="sA1DfeJpiTtIdsuiIgHE-1">
          <mxGeometry relative="1" as="geometry">
            <mxPoint x="75" y="610" as="targetPoint" />
            <Array as="points">
              <mxPoint x="75" y="450" />
              <mxPoint x="75" y="450" />
            </Array>
          </mxGeometry>
        </mxCell>
        <mxCell id="sA1DfeJpiTtIdsuiIgHE-6" value="" style="endArrow=classic;html=1;rounded=0;" edge="1" parent="1">
          <mxGeometry width="50" height="50" relative="1" as="geometry">
            <mxPoint x="75" y="190" as="sourcePoint" />
            <mxPoint x="499" y="190" as="targetPoint" />
          </mxGeometry>
        </mxCell>
        <mxCell id="sA1DfeJpiTtIdsuiIgHE-7" value="selectSearch(Search)" style="edgeLabel;html=1;align=center;verticalAlign=middle;resizable=0;points=[];" vertex="1" connectable="0" parent="sA1DfeJpiTtIdsuiIgHE-6">
          <mxGeometry x="0.006" relative="1" as="geometry">
            <mxPoint as="offset" />
          </mxGeometry>
        </mxCell>
        <mxCell id="sA1DfeJpiTtIdsuiIgHE-8" value="" style="endArrow=none;html=1;rounded=0;startArrow=open;startFill=0;endFill=0;dashed=1;" edge="1" parent="1">
          <mxGeometry width="50" height="50" relative="1" as="geometry">
            <mxPoint x="76" y="267" as="sourcePoint" />
            <mxPoint x="495" y="267" as="targetPoint" />
          </mxGeometry>
        </mxCell>
        <mxCell id="sA1DfeJpiTtIdsuiIgHE-9" value="food types, distance, delivery services&amp;nbsp;" style="edgeLabel;html=1;align=center;verticalAlign=middle;resizable=0;points=[];" vertex="1" connectable="0" parent="sA1DfeJpiTtIdsuiIgHE-8">
          <mxGeometry x="0.006" relative="1" as="geometry">
            <mxPoint as="offset" />
          </mxGeometry>
        </mxCell>
        <mxCell id="sA1DfeJpiTtIdsuiIgHE-10" value="" style="endArrow=classic;html=1;rounded=0;" edge="1" parent="1">
          <mxGeometry width="50" height="50" relative="1" as="geometry">
            <mxPoint x="76" y="297" as="sourcePoint" />
            <mxPoint x="500" y="296" as="targetPoint" />
          </mxGeometry>
        </mxCell>
        <mxCell id="sA1DfeJpiTtIdsuiIgHE-11" value="enterSearchResults(Search)" style="edgeLabel;html=1;align=center;verticalAlign=middle;resizable=0;points=[];" vertex="1" connectable="0" parent="sA1DfeJpiTtIdsuiIgHE-10">
          <mxGeometry x="0.006" relative="1" as="geometry">
            <mxPoint as="offset" />
          </mxGeometry>
        </mxCell>
        <mxCell id="sA1DfeJpiTtIdsuiIgHE-12" value="" style="endArrow=none;html=1;rounded=0;startArrow=open;startFill=0;endFill=0;dashed=1;" edge="1" parent="1">
          <mxGeometry width="50" height="50" relative="1" as="geometry">
            <mxPoint x="75" y="320" as="sourcePoint" />
            <mxPoint x="499" y="320" as="targetPoint" />
          </mxGeometry>
        </mxCell>
        <mxCell id="sA1DfeJpiTtIdsuiIgHE-13" value="activated send button" style="edgeLabel;html=1;align=center;verticalAlign=middle;resizable=0;points=[];" vertex="1" connectable="0" parent="sA1DfeJpiTtIdsuiIgHE-12">
          <mxGeometry x="0.006" relative="1" as="geometry">
            <mxPoint as="offset" />
          </mxGeometry>
        </mxCell>
        <mxCell id="sA1DfeJpiTtIdsuiIgHE-14" value="" style="endArrow=classic;html=1;rounded=0;" edge="1" parent="1">
          <mxGeometry width="50" height="50" relative="1" as="geometry">
            <mxPoint x="75" y="350.52" as="sourcePoint" />
            <mxPoint x="499" y="350" as="targetPoint" />
          </mxGeometry>
        </mxCell>
        <mxCell id="sA1DfeJpiTtIdsuiIgHE-15" value="sendSearchResults(Search)" style="edgeLabel;html=1;align=center;verticalAlign=middle;resizable=0;points=[];" vertex="1" connectable="0" parent="sA1DfeJpiTtIdsuiIgHE-14">
          <mxGeometry x="0.006" relative="1" as="geometry">
            <mxPoint as="offset" />
          </mxGeometry>
        </mxCell>
        <mxCell id="sA1DfeJpiTtIdsuiIgHE-16" value="" style="endArrow=none;html=1;rounded=0;startArrow=open;startFill=0;endFill=0;dashed=1;" edge="1" parent="1">
          <mxGeometry width="50" height="50" relative="1" as="geometry">
            <mxPoint x="75" y="446" as="sourcePoint" />
            <mxPoint x="810" y="446" as="targetPoint" />
          </mxGeometry>
        </mxCell>
        <mxCell id="sA1DfeJpiTtIdsuiIgHE-17" value="updated feed with search results" style="edgeLabel;html=1;align=center;verticalAlign=middle;resizable=0;points=[];" vertex="1" connectable="0" parent="sA1DfeJpiTtIdsuiIgHE-16">
          <mxGeometry x="0.006" relative="1" as="geometry">
            <mxPoint x="-65" as="offset" />
          </mxGeometry>
        </mxCell>
        <mxCell id="sA1DfeJpiTtIdsuiIgHE-18" value="" style="endArrow=open;html=1;strokeWidth=1;rounded=0;endFill=0;" edge="1" parent="1">
          <mxGeometry width="50" height="50" relative="1" as="geometry">
            <mxPoint x="650" y="590" as="sourcePoint" />
            <mxPoint x="1230" y="590" as="targetPoint" />
          </mxGeometry>
        </mxCell>
        <mxCell id="sA1DfeJpiTtIdsuiIgHE-19" value="sendNotification(notification, member)" style="edgeLabel;html=1;align=center;verticalAlign=middle;resizable=0;points=[];" vertex="1" connectable="0" parent="sA1DfeJpiTtIdsuiIgHE-18">
          <mxGeometry x="-0.171" y="-1" relative="1" as="geometry">
            <mxPoint x="-16" y="-1" as="offset" />
          </mxGeometry>
        </mxCell>
        <mxCell id="sA1DfeJpiTtIdsuiIgHE-20" style="edgeStyle=orthogonalEdgeStyle;rounded=0;orthogonalLoop=1;jettySize=auto;html=1;dashed=1;endArrow=none;endFill=0;" edge="1" parent="1" source="sA1DfeJpiTtIdsuiIgHE-21">
          <mxGeometry relative="1" as="geometry">
            <mxPoint x="1228" y="591" as="targetPoint" />
          </mxGeometry>
        </mxCell>
        <mxCell id="sA1DfeJpiTtIdsuiIgHE-21" value="NotificationUI" style="html=1;whiteSpace=wrap;" vertex="1" parent="1">
          <mxGeometry x="1173" y="215" width="110" height="50" as="geometry" />
        </mxCell>
        <mxCell id="sA1DfeJpiTtIdsuiIgHE-22" value="&lt;font style=&quot;font-size: 14px;&quot;&gt;Case:&lt;br&gt;Search Food&lt;/font&gt;" style="text;html=1;align=center;verticalAlign=middle;resizable=0;points=[];autosize=1;strokeColor=none;fillColor=none;" vertex="1" parent="1">
          <mxGeometry x="255" y="100" width="100" height="50" as="geometry" />
        </mxCell>
        <mxCell id="sA1DfeJpiTtIdsuiIgHE-23" style="edgeStyle=orthogonalEdgeStyle;rounded=0;orthogonalLoop=1;jettySize=auto;html=1;endArrow=none;endFill=0;dashed=1;" edge="1" parent="1" source="sA1DfeJpiTtIdsuiIgHE-24">
          <mxGeometry relative="1" as="geometry">
            <mxPoint x="650" y="600" as="targetPoint" />
            <Array as="points">
              <mxPoint x="650" y="600" />
            </Array>
          </mxGeometry>
        </mxCell>
        <mxCell id="sA1DfeJpiTtIdsuiIgHE-24" value="&amp;lt;&amp;lt;controller&amp;gt;&amp;gt;&lt;br&gt;SelectSearch" style="html=1;whiteSpace=wrap;" vertex="1" parent="1">
          <mxGeometry x="580" y="120" width="140" height="50" as="geometry" />
        </mxCell>
        <mxCell id="sA1DfeJpiTtIdsuiIgHE-25" style="edgeStyle=orthogonalEdgeStyle;rounded=0;orthogonalLoop=1;jettySize=auto;html=1;endArrow=none;endFill=0;dashed=1;" edge="1" parent="1">
          <mxGeometry relative="1" as="geometry">
            <mxPoint x="990" y="590" as="targetPoint" />
            <Array as="points">
              <mxPoint x="990" y="600" />
            </Array>
            <mxPoint x="990" y="170.0000000000001" as="sourcePoint" />
          </mxGeometry>
        </mxCell>
        <mxCell id="sA1DfeJpiTtIdsuiIgHE-26" value="&amp;lt;&amp;lt;entity&amp;gt;&amp;gt;&lt;br&gt;setSearch" style="html=1;whiteSpace=wrap;" vertex="1" parent="1">
          <mxGeometry x="946" y="130" width="88" height="40" as="geometry" />
        </mxCell>
        <mxCell id="sA1DfeJpiTtIdsuiIgHE-27" style="edgeStyle=orthogonalEdgeStyle;rounded=0;orthogonalLoop=1;jettySize=auto;html=1;endArrow=none;endFill=0;dashed=1;" edge="1" parent="1">
          <mxGeometry relative="1" as="geometry">
            <mxPoint x="1123" y="590" as="targetPoint" />
            <Array as="points">
              <mxPoint x="1123" y="600" />
            </Array>
            <mxPoint x="1123" y="170.0000000000001" as="sourcePoint" />
          </mxGeometry>
        </mxCell>
        <mxCell id="sA1DfeJpiTtIdsuiIgHE-28" value="&amp;lt;&amp;lt;entity&amp;gt;&amp;gt;&lt;br&gt;SelectSearchResults" style="html=1;whiteSpace=wrap;" vertex="1" parent="1">
          <mxGeometry x="1063" y="120" width="110" height="50" as="geometry" />
        </mxCell>
        <mxCell id="sA1DfeJpiTtIdsuiIgHE-29" style="edgeStyle=orthogonalEdgeStyle;rounded=0;orthogonalLoop=1;jettySize=auto;html=1;endArrow=none;endFill=0;dashed=1;" edge="1" parent="1">
          <mxGeometry relative="1" as="geometry">
            <mxPoint x="812" y="590" as="targetPoint" />
            <Array as="points">
              <mxPoint x="812" y="600" />
            </Array>
            <mxPoint x="812" y="170.0000000000001" as="sourcePoint" />
          </mxGeometry>
        </mxCell>
        <mxCell id="sA1DfeJpiTtIdsuiIgHE-30" value="&amp;lt;&amp;lt;entity&amp;gt;&amp;gt;&lt;br&gt;Search" style="html=1;whiteSpace=wrap;" vertex="1" parent="1">
          <mxGeometry x="755" y="119" width="110" height="50" as="geometry" />
        </mxCell>
        <mxCell id="sA1DfeJpiTtIdsuiIgHE-31" value="" style="endArrow=classic;html=1;rounded=0;" edge="1" parent="1">
          <mxGeometry width="50" height="50" relative="1" as="geometry">
            <mxPoint x="500" y="215" as="sourcePoint" />
            <mxPoint x="650" y="215" as="targetPoint" />
          </mxGeometry>
        </mxCell>
        <mxCell id="sA1DfeJpiTtIdsuiIgHE-32" value="selectSearch(Search)" style="edgeLabel;html=1;align=center;verticalAlign=middle;resizable=0;points=[];" vertex="1" connectable="0" parent="sA1DfeJpiTtIdsuiIgHE-31">
          <mxGeometry x="0.006" relative="1" as="geometry">
            <mxPoint as="offset" />
          </mxGeometry>
        </mxCell>
        <mxCell id="sA1DfeJpiTtIdsuiIgHE-33" value="" style="endArrow=classic;html=1;rounded=0;" edge="1" parent="1">
          <mxGeometry width="50" height="50" relative="1" as="geometry">
            <mxPoint x="650" y="230" as="sourcePoint" />
            <mxPoint x="810" y="230" as="targetPoint" />
          </mxGeometry>
        </mxCell>
        <mxCell id="sA1DfeJpiTtIdsuiIgHE-34" value="selectChannel(channel)" style="edgeLabel;html=1;align=center;verticalAlign=middle;resizable=0;points=[];" vertex="1" connectable="0" parent="sA1DfeJpiTtIdsuiIgHE-33">
          <mxGeometry x="0.006" relative="1" as="geometry">
            <mxPoint as="offset" />
          </mxGeometry>
        </mxCell>
        <mxCell id="sA1DfeJpiTtIdsuiIgHE-35" value="" style="endArrow=classic;html=1;rounded=0;" edge="1" parent="1">
          <mxGeometry width="50" height="50" relative="1" as="geometry">
            <mxPoint x="810" y="250" as="sourcePoint" />
            <mxPoint x="990" y="250" as="targetPoint" />
          </mxGeometry>
        </mxCell>
        <mxCell id="sA1DfeJpiTtIdsuiIgHE-36" value="searchfeed= getSearchFeed" style="edgeLabel;html=1;align=center;verticalAlign=middle;resizable=0;points=[];" vertex="1" connectable="0" parent="sA1DfeJpiTtIdsuiIgHE-35">
          <mxGeometry x="0.006" relative="1" as="geometry">
            <mxPoint y="-10" as="offset" />
          </mxGeometry>
        </mxCell>
        <mxCell id="sA1DfeJpiTtIdsuiIgHE-37" value="" style="endArrow=none;html=1;rounded=0;startArrow=classic;startFill=1;endFill=0;dashed=1;" edge="1" parent="1">
          <mxGeometry width="50" height="50" relative="1" as="geometry">
            <mxPoint x="650" y="250" as="sourcePoint" />
            <mxPoint x="810" y="250" as="targetPoint" />
          </mxGeometry>
        </mxCell>
        <mxCell id="sA1DfeJpiTtIdsuiIgHE-38" value="searchfeed" style="edgeLabel;html=1;align=center;verticalAlign=middle;resizable=0;points=[];" vertex="1" connectable="0" parent="sA1DfeJpiTtIdsuiIgHE-37">
          <mxGeometry x="0.006" relative="1" as="geometry">
            <mxPoint as="offset" />
          </mxGeometry>
        </mxCell>
        <mxCell id="sA1DfeJpiTtIdsuiIgHE-39" value="" style="endArrow=none;html=1;rounded=0;startArrow=classic;startFill=1;endFill=0;dashed=1;" edge="1" parent="1">
          <mxGeometry width="50" height="50" relative="1" as="geometry">
            <mxPoint x="500" y="250" as="sourcePoint" />
            <mxPoint x="650" y="250" as="targetPoint" />
          </mxGeometry>
        </mxCell>
        <mxCell id="sA1DfeJpiTtIdsuiIgHE-40" value="searchfeed" style="edgeLabel;html=1;align=center;verticalAlign=middle;resizable=0;points=[];" vertex="1" connectable="0" parent="sA1DfeJpiTtIdsuiIgHE-39">
          <mxGeometry x="0.006" relative="1" as="geometry">
            <mxPoint as="offset" />
          </mxGeometry>
        </mxCell>
        <mxCell id="sA1DfeJpiTtIdsuiIgHE-41" value="" style="endArrow=classic;html=1;rounded=0;" edge="1" parent="1">
          <mxGeometry width="50" height="50" relative="1" as="geometry">
            <mxPoint x="500" y="380.52" as="sourcePoint" />
            <mxPoint x="650" y="380" as="targetPoint" />
          </mxGeometry>
        </mxCell>
        <mxCell id="sA1DfeJpiTtIdsuiIgHE-42" value="sendSearchResults(Search)" style="edgeLabel;html=1;align=center;verticalAlign=middle;resizable=0;points=[];" vertex="1" connectable="0" parent="sA1DfeJpiTtIdsuiIgHE-41">
          <mxGeometry x="0.006" relative="1" as="geometry">
            <mxPoint as="offset" />
          </mxGeometry>
        </mxCell>
        <mxCell id="sA1DfeJpiTtIdsuiIgHE-43" value="" style="endArrow=classic;html=1;rounded=0;" edge="1" parent="1">
          <mxGeometry width="50" height="50" relative="1" as="geometry">
            <mxPoint x="650" y="400.52" as="sourcePoint" />
            <mxPoint x="990" y="400" as="targetPoint" />
          </mxGeometry>
        </mxCell>
        <mxCell id="sA1DfeJpiTtIdsuiIgHE-44" value="SearchResults= createSearchResults" style="edgeLabel;html=1;align=center;verticalAlign=middle;resizable=0;points=[];" vertex="1" connectable="0" parent="sA1DfeJpiTtIdsuiIgHE-43">
          <mxGeometry x="0.006" relative="1" as="geometry">
            <mxPoint as="offset" />
          </mxGeometry>
        </mxCell>
        <mxCell id="sA1DfeJpiTtIdsuiIgHE-45" value="" style="endArrow=classic;html=1;rounded=0;" edge="1" parent="1">
          <mxGeometry width="50" height="50" relative="1" as="geometry">
            <mxPoint x="650" y="420.52" as="sourcePoint" />
            <mxPoint x="810" y="420" as="targetPoint" />
          </mxGeometry>
        </mxCell>
        <mxCell id="sA1DfeJpiTtIdsuiIgHE-46" value="addSortType(Search)" style="edgeLabel;html=1;align=center;verticalAlign=middle;resizable=0;points=[];" vertex="1" connectable="0" parent="sA1DfeJpiTtIdsuiIgHE-45">
          <mxGeometry x="0.006" relative="1" as="geometry">
            <mxPoint as="offset" />
          </mxGeometry>
        </mxCell>
        <mxCell id="sA1DfeJpiTtIdsuiIgHE-47" value="" style="endArrow=classic;html=1;rounded=0;" edge="1" parent="1">
          <mxGeometry width="50" height="50" relative="1" as="geometry">
            <mxPoint x="650" y="510.52" as="sourcePoint" />
            <mxPoint x="1120" y="510" as="targetPoint" />
          </mxGeometry>
        </mxCell>
        <mxCell id="sA1DfeJpiTtIdsuiIgHE-48" value="createNotification(notification)" style="edgeLabel;html=1;align=center;verticalAlign=middle;resizable=0;points=[];" vertex="1" connectable="0" parent="sA1DfeJpiTtIdsuiIgHE-47">
          <mxGeometry x="0.006" relative="1" as="geometry">
            <mxPoint as="offset" />
          </mxGeometry>
        </mxCell>
        <mxCell id="sA1DfeJpiTtIdsuiIgHE-51" value="" style="shape=umlActor;verticalLabelPosition=bottom;verticalAlign=top;html=1;outlineConnect=0;" vertex="1" parent="1">
          <mxGeometry x="1350" y="140" width="30" height="60" as="geometry" />
        </mxCell>
        <mxCell id="sA1DfeJpiTtIdsuiIgHE-52" style="edgeStyle=orthogonalEdgeStyle;rounded=0;orthogonalLoop=1;jettySize=auto;html=1;dashed=1;endArrow=none;endFill=0;" edge="1" parent="1" source="sA1DfeJpiTtIdsuiIgHE-53">
          <mxGeometry relative="1" as="geometry">
            <mxPoint x="1355" y="591.4814814814815" as="targetPoint" />
          </mxGeometry>
        </mxCell>
        <mxCell id="sA1DfeJpiTtIdsuiIgHE-53" value="SuperEats Search Results" style="html=1;whiteSpace=wrap;" vertex="1" parent="1">
          <mxGeometry x="1300" y="215" width="110" height="50" as="geometry" />
        </mxCell>
        <mxCell id="sA1DfeJpiTtIdsuiIgHE-54" value="" style="endArrow=classic;html=1;rounded=0;" edge="1" parent="1">
          <mxGeometry width="50" height="50" relative="1" as="geometry">
            <mxPoint x="1227" y="549" as="sourcePoint" />
            <mxPoint x="1360" y="549" as="targetPoint" />
          </mxGeometry>
        </mxCell>
        <mxCell id="sA1DfeJpiTtIdsuiIgHE-55" value="notification" style="edgeLabel;html=1;align=center;verticalAlign=middle;resizable=0;points=[];" vertex="1" connectable="0" parent="sA1DfeJpiTtIdsuiIgHE-54">
          <mxGeometry x="0.006" relative="1" as="geometry">
            <mxPoint y="-10" as="offset" />
          </mxGeometry>
        </mxCell>
      </root>
    </mxGraphModel>
  </diagram>
  <diagram id="9CNovhGs61N2T7ndkYj_" name="User">
    <mxGraphModel dx="1178" dy="628" grid="1" gridSize="10" guides="1" tooltips="1" connect="1" arrows="1" fold="1" page="1" pageScale="1" pageWidth="850" pageHeight="1100" math="0" shadow="0">
      <root>
        <mxCell id="0" />
        <mxCell id="1" parent="0" />
        <mxCell id="3e5c_zj2qQWMfmJHqovq-1" value="Member" style="html=1;whiteSpace=wrap;" vertex="1" parent="1">
          <mxGeometry x="75" y="120" width="110" height="50" as="geometry" />
        </mxCell>
        <mxCell id="3e5c_zj2qQWMfmJHqovq-2" style="edgeStyle=orthogonalEdgeStyle;rounded=0;orthogonalLoop=1;jettySize=auto;html=1;endArrow=none;endFill=0;dashed=1;" edge="1" parent="1" source="3e5c_zj2qQWMfmJHqovq-3">
          <mxGeometry relative="1" as="geometry">
            <mxPoint x="500" y="600" as="targetPoint" />
            <Array as="points">
              <mxPoint x="500" y="600" />
            </Array>
          </mxGeometry>
        </mxCell>
        <mxCell id="3e5c_zj2qQWMfmJHqovq-3" value="CreateUserUI" style="html=1;whiteSpace=wrap;" vertex="1" parent="1">
          <mxGeometry x="445" y="120" width="110" height="50" as="geometry" />
        </mxCell>
        <mxCell id="3e5c_zj2qQWMfmJHqovq-4" value="" style="shape=umlActor;verticalLabelPosition=bottom;verticalAlign=top;html=1;" vertex="1" parent="1">
          <mxGeometry x="115" y="50" width="30" height="60" as="geometry" />
        </mxCell>
        <mxCell id="3e5c_zj2qQWMfmJHqovq-5" style="edgeStyle=orthogonalEdgeStyle;rounded=0;orthogonalLoop=1;jettySize=auto;html=1;exitX=0;exitY=1;exitDx=0;exitDy=0;endArrow=none;endFill=0;dashed=1;" edge="1" parent="1" source="3e5c_zj2qQWMfmJHqovq-1">
          <mxGeometry relative="1" as="geometry">
            <mxPoint x="75" y="610" as="targetPoint" />
            <Array as="points">
              <mxPoint x="75" y="450" />
              <mxPoint x="75" y="450" />
            </Array>
          </mxGeometry>
        </mxCell>
        <mxCell id="3e5c_zj2qQWMfmJHqovq-6" value="" style="endArrow=classic;html=1;rounded=0;" edge="1" parent="1">
          <mxGeometry width="50" height="50" relative="1" as="geometry">
            <mxPoint x="75" y="190" as="sourcePoint" />
            <mxPoint x="499" y="190" as="targetPoint" />
          </mxGeometry>
        </mxCell>
        <mxCell id="3e5c_zj2qQWMfmJHqovq-7" value="selectUser(User)" style="edgeLabel;html=1;align=center;verticalAlign=middle;resizable=0;points=[];" vertex="1" connectable="0" parent="3e5c_zj2qQWMfmJHqovq-6">
          <mxGeometry x="0.006" relative="1" as="geometry">
            <mxPoint as="offset" />
          </mxGeometry>
        </mxCell>
        <mxCell id="3e5c_zj2qQWMfmJHqovq-8" value="" style="endArrow=none;html=1;rounded=0;startArrow=open;startFill=0;endFill=0;dashed=1;" edge="1" parent="1">
          <mxGeometry width="50" height="50" relative="1" as="geometry">
            <mxPoint x="75" y="230" as="sourcePoint" />
            <mxPoint x="494" y="230" as="targetPoint" />
          </mxGeometry>
        </mxCell>
        <mxCell id="3e5c_zj2qQWMfmJHqovq-9" value="userID, fullname, age, gender, address, phone number, order history" style="edgeLabel;html=1;align=center;verticalAlign=middle;resizable=0;points=[];" vertex="1" connectable="0" parent="3e5c_zj2qQWMfmJHqovq-8">
          <mxGeometry x="0.006" relative="1" as="geometry">
            <mxPoint y="-7" as="offset" />
          </mxGeometry>
        </mxCell>
        <mxCell id="3e5c_zj2qQWMfmJHqovq-10" value="" style="endArrow=classic;html=1;rounded=0;" edge="1" parent="1">
          <mxGeometry width="50" height="50" relative="1" as="geometry">
            <mxPoint x="75" y="281" as="sourcePoint" />
            <mxPoint x="499" y="280" as="targetPoint" />
          </mxGeometry>
        </mxCell>
        <mxCell id="3e5c_zj2qQWMfmJHqovq-11" value="getUserID(User)" style="edgeLabel;html=1;align=center;verticalAlign=middle;resizable=0;points=[];" vertex="1" connectable="0" parent="3e5c_zj2qQWMfmJHqovq-10">
          <mxGeometry x="0.006" relative="1" as="geometry">
            <mxPoint as="offset" />
          </mxGeometry>
        </mxCell>
        <mxCell id="3e5c_zj2qQWMfmJHqovq-12" value="" style="endArrow=none;html=1;rounded=0;startArrow=open;startFill=0;endFill=0;dashed=1;" edge="1" parent="1">
          <mxGeometry width="50" height="50" relative="1" as="geometry">
            <mxPoint x="75" y="420" as="sourcePoint" />
            <mxPoint x="499" y="420" as="targetPoint" />
          </mxGeometry>
        </mxCell>
        <mxCell id="3e5c_zj2qQWMfmJHqovq-13" value="activated send button" style="edgeLabel;html=1;align=center;verticalAlign=middle;resizable=0;points=[];" vertex="1" connectable="0" parent="3e5c_zj2qQWMfmJHqovq-12">
          <mxGeometry x="0.006" relative="1" as="geometry">
            <mxPoint as="offset" />
          </mxGeometry>
        </mxCell>
        <mxCell id="3e5c_zj2qQWMfmJHqovq-14" value="" style="endArrow=classic;html=1;rounded=0;" edge="1" parent="1">
          <mxGeometry width="50" height="50" relative="1" as="geometry">
            <mxPoint x="75" y="300.52" as="sourcePoint" />
            <mxPoint x="499" y="300" as="targetPoint" />
          </mxGeometry>
        </mxCell>
        <mxCell id="3e5c_zj2qQWMfmJHqovq-15" value="getUserFullName(User)" style="edgeLabel;html=1;align=center;verticalAlign=middle;resizable=0;points=[];" vertex="1" connectable="0" parent="3e5c_zj2qQWMfmJHqovq-14">
          <mxGeometry x="0.006" relative="1" as="geometry">
            <mxPoint as="offset" />
          </mxGeometry>
        </mxCell>
        <mxCell id="3e5c_zj2qQWMfmJHqovq-16" value="" style="endArrow=none;html=1;rounded=0;startArrow=open;startFill=0;endFill=0;dashed=1;" edge="1" parent="1">
          <mxGeometry width="50" height="50" relative="1" as="geometry">
            <mxPoint x="75" y="446" as="sourcePoint" />
            <mxPoint x="810" y="446" as="targetPoint" />
          </mxGeometry>
        </mxCell>
        <mxCell id="3e5c_zj2qQWMfmJHqovq-17" value="updated user feed with user message" style="edgeLabel;html=1;align=center;verticalAlign=middle;resizable=0;points=[];" vertex="1" connectable="0" parent="3e5c_zj2qQWMfmJHqovq-16">
          <mxGeometry x="0.006" relative="1" as="geometry">
            <mxPoint x="-65" as="offset" />
          </mxGeometry>
        </mxCell>
        <mxCell id="3e5c_zj2qQWMfmJHqovq-18" value="" style="endArrow=open;html=1;strokeWidth=1;rounded=0;endFill=0;" edge="1" parent="1">
          <mxGeometry width="50" height="50" relative="1" as="geometry">
            <mxPoint x="650" y="590" as="sourcePoint" />
            <mxPoint x="1230" y="590" as="targetPoint" />
          </mxGeometry>
        </mxCell>
        <mxCell id="3e5c_zj2qQWMfmJHqovq-19" value="sendNotification(notification,)" style="edgeLabel;html=1;align=center;verticalAlign=middle;resizable=0;points=[];" vertex="1" connectable="0" parent="3e5c_zj2qQWMfmJHqovq-18">
          <mxGeometry x="-0.171" y="-1" relative="1" as="geometry">
            <mxPoint x="-16" y="-1" as="offset" />
          </mxGeometry>
        </mxCell>
        <mxCell id="3e5c_zj2qQWMfmJHqovq-20" style="edgeStyle=orthogonalEdgeStyle;rounded=0;orthogonalLoop=1;jettySize=auto;html=1;dashed=1;endArrow=none;endFill=0;" edge="1" parent="1" source="3e5c_zj2qQWMfmJHqovq-21">
          <mxGeometry relative="1" as="geometry">
            <mxPoint x="1228" y="591" as="targetPoint" />
          </mxGeometry>
        </mxCell>
        <mxCell id="3e5c_zj2qQWMfmJHqovq-21" value="NotificationUI" style="html=1;whiteSpace=wrap;" vertex="1" parent="1">
          <mxGeometry x="1173" y="215" width="110" height="50" as="geometry" />
        </mxCell>
        <mxCell id="3e5c_zj2qQWMfmJHqovq-22" value="&lt;font style=&quot;font-size: 14px;&quot;&gt;Case:&lt;br&gt;Create User&lt;/font&gt;" style="text;html=1;align=center;verticalAlign=middle;resizable=0;points=[];autosize=1;strokeColor=none;fillColor=none;" vertex="1" parent="1">
          <mxGeometry x="255" y="100" width="100" height="50" as="geometry" />
        </mxCell>
        <mxCell id="3e5c_zj2qQWMfmJHqovq-23" style="edgeStyle=orthogonalEdgeStyle;rounded=0;orthogonalLoop=1;jettySize=auto;html=1;endArrow=none;endFill=0;dashed=1;" edge="1" parent="1" source="3e5c_zj2qQWMfmJHqovq-24">
          <mxGeometry relative="1" as="geometry">
            <mxPoint x="650" y="600" as="targetPoint" />
            <Array as="points">
              <mxPoint x="650" y="600" />
            </Array>
          </mxGeometry>
        </mxCell>
        <mxCell id="3e5c_zj2qQWMfmJHqovq-24" value="&amp;lt;&amp;lt;controller&amp;gt;&amp;gt;&lt;br&gt;SetUser" style="html=1;whiteSpace=wrap;" vertex="1" parent="1">
          <mxGeometry x="580" y="119" width="140" height="50" as="geometry" />
        </mxCell>
        <mxCell id="3e5c_zj2qQWMfmJHqovq-25" style="edgeStyle=orthogonalEdgeStyle;rounded=0;orthogonalLoop=1;jettySize=auto;html=1;endArrow=none;endFill=0;dashed=1;" edge="1" parent="1">
          <mxGeometry relative="1" as="geometry">
            <mxPoint x="990" y="590" as="targetPoint" />
            <Array as="points">
              <mxPoint x="990" y="600" />
            </Array>
            <mxPoint x="990" y="170.0000000000001" as="sourcePoint" />
          </mxGeometry>
        </mxCell>
        <mxCell id="3e5c_zj2qQWMfmJHqovq-26" value="&amp;lt;&amp;lt;entity&amp;gt;&amp;gt;&lt;br&gt;UserID" style="html=1;whiteSpace=wrap;" vertex="1" parent="1">
          <mxGeometry x="946" y="130" width="88" height="40" as="geometry" />
        </mxCell>
        <mxCell id="3e5c_zj2qQWMfmJHqovq-27" style="edgeStyle=orthogonalEdgeStyle;rounded=0;orthogonalLoop=1;jettySize=auto;html=1;endArrow=none;endFill=0;dashed=1;" edge="1" parent="1">
          <mxGeometry relative="1" as="geometry">
            <mxPoint x="1123" y="590" as="targetPoint" />
            <Array as="points">
              <mxPoint x="1123" y="600" />
            </Array>
            <mxPoint x="1123" y="170.0000000000001" as="sourcePoint" />
          </mxGeometry>
        </mxCell>
        <mxCell id="3e5c_zj2qQWMfmJHqovq-28" value="&amp;lt;&amp;lt;entity&amp;gt;&amp;gt;&lt;br&gt;Notification" style="html=1;whiteSpace=wrap;" vertex="1" parent="1">
          <mxGeometry x="1063" y="120" width="110" height="50" as="geometry" />
        </mxCell>
        <mxCell id="3e5c_zj2qQWMfmJHqovq-29" style="edgeStyle=orthogonalEdgeStyle;rounded=0;orthogonalLoop=1;jettySize=auto;html=1;endArrow=none;endFill=0;dashed=1;" edge="1" parent="1">
          <mxGeometry relative="1" as="geometry">
            <mxPoint x="812" y="590" as="targetPoint" />
            <Array as="points">
              <mxPoint x="812" y="600" />
            </Array>
            <mxPoint x="812" y="170.0000000000001" as="sourcePoint" />
          </mxGeometry>
        </mxCell>
        <mxCell id="3e5c_zj2qQWMfmJHqovq-30" value="&amp;lt;&amp;lt;entity&amp;gt;&amp;gt;&lt;br&gt;User" style="html=1;whiteSpace=wrap;" vertex="1" parent="1">
          <mxGeometry x="755" y="119" width="110" height="50" as="geometry" />
        </mxCell>
        <mxCell id="3e5c_zj2qQWMfmJHqovq-31" value="" style="endArrow=classic;html=1;rounded=0;" edge="1" parent="1">
          <mxGeometry width="50" height="50" relative="1" as="geometry">
            <mxPoint x="500" y="215" as="sourcePoint" />
            <mxPoint x="650" y="215" as="targetPoint" />
          </mxGeometry>
        </mxCell>
        <mxCell id="3e5c_zj2qQWMfmJHqovq-32" value="selectSetUser(User)" style="edgeLabel;html=1;align=center;verticalAlign=middle;resizable=0;points=[];" vertex="1" connectable="0" parent="3e5c_zj2qQWMfmJHqovq-31">
          <mxGeometry x="0.006" relative="1" as="geometry">
            <mxPoint as="offset" />
          </mxGeometry>
        </mxCell>
        <mxCell id="3e5c_zj2qQWMfmJHqovq-33" value="" style="endArrow=classic;html=1;rounded=0;" edge="1" parent="1">
          <mxGeometry width="50" height="50" relative="1" as="geometry">
            <mxPoint x="650" y="230" as="sourcePoint" />
            <mxPoint x="810" y="230" as="targetPoint" />
          </mxGeometry>
        </mxCell>
        <mxCell id="3e5c_zj2qQWMfmJHqovq-34" value="selectUser(User)" style="edgeLabel;html=1;align=center;verticalAlign=middle;resizable=0;points=[];" vertex="1" connectable="0" parent="3e5c_zj2qQWMfmJHqovq-33">
          <mxGeometry x="0.006" relative="1" as="geometry">
            <mxPoint as="offset" />
          </mxGeometry>
        </mxCell>
        <mxCell id="3e5c_zj2qQWMfmJHqovq-35" value="" style="endArrow=classic;html=1;rounded=0;" edge="1" parent="1">
          <mxGeometry width="50" height="50" relative="1" as="geometry">
            <mxPoint x="810" y="250" as="sourcePoint" />
            <mxPoint x="990" y="250" as="targetPoint" />
          </mxGeometry>
        </mxCell>
        <mxCell id="3e5c_zj2qQWMfmJHqovq-36" value="userFeed= getUserFeed" style="edgeLabel;html=1;align=center;verticalAlign=middle;resizable=0;points=[];" vertex="1" connectable="0" parent="3e5c_zj2qQWMfmJHqovq-35">
          <mxGeometry x="0.006" relative="1" as="geometry">
            <mxPoint y="-10" as="offset" />
          </mxGeometry>
        </mxCell>
        <mxCell id="3e5c_zj2qQWMfmJHqovq-37" value="" style="endArrow=none;html=1;rounded=0;startArrow=classic;startFill=1;endFill=0;dashed=1;" edge="1" parent="1">
          <mxGeometry width="50" height="50" relative="1" as="geometry">
            <mxPoint x="650" y="250" as="sourcePoint" />
            <mxPoint x="810" y="250" as="targetPoint" />
          </mxGeometry>
        </mxCell>
        <mxCell id="3e5c_zj2qQWMfmJHqovq-38" value="userFeed" style="edgeLabel;html=1;align=center;verticalAlign=middle;resizable=0;points=[];" vertex="1" connectable="0" parent="3e5c_zj2qQWMfmJHqovq-37">
          <mxGeometry x="0.006" relative="1" as="geometry">
            <mxPoint as="offset" />
          </mxGeometry>
        </mxCell>
        <mxCell id="3e5c_zj2qQWMfmJHqovq-39" value="" style="endArrow=none;html=1;rounded=0;startArrow=classic;startFill=1;endFill=0;dashed=1;" edge="1" parent="1">
          <mxGeometry width="50" height="50" relative="1" as="geometry">
            <mxPoint x="500" y="250" as="sourcePoint" />
            <mxPoint x="650" y="250" as="targetPoint" />
          </mxGeometry>
        </mxCell>
        <mxCell id="3e5c_zj2qQWMfmJHqovq-40" value="userFeed" style="edgeLabel;html=1;align=center;verticalAlign=middle;resizable=0;points=[];" vertex="1" connectable="0" parent="3e5c_zj2qQWMfmJHqovq-39">
          <mxGeometry x="0.006" relative="1" as="geometry">
            <mxPoint as="offset" />
          </mxGeometry>
        </mxCell>
        <mxCell id="3e5c_zj2qQWMfmJHqovq-41" value="" style="endArrow=classic;html=1;rounded=0;" edge="1" parent="1">
          <mxGeometry width="50" height="50" relative="1" as="geometry">
            <mxPoint x="500" y="380.52" as="sourcePoint" />
            <mxPoint x="650" y="380" as="targetPoint" />
          </mxGeometry>
        </mxCell>
        <mxCell id="3e5c_zj2qQWMfmJHqovq-42" value="sendUserID(User)" style="edgeLabel;html=1;align=center;verticalAlign=middle;resizable=0;points=[];" vertex="1" connectable="0" parent="3e5c_zj2qQWMfmJHqovq-41">
          <mxGeometry x="0.006" relative="1" as="geometry">
            <mxPoint as="offset" />
          </mxGeometry>
        </mxCell>
        <mxCell id="3e5c_zj2qQWMfmJHqovq-43" value="" style="endArrow=classic;html=1;rounded=0;" edge="1" parent="1">
          <mxGeometry width="50" height="50" relative="1" as="geometry">
            <mxPoint x="650" y="400.52" as="sourcePoint" />
            <mxPoint x="990" y="400" as="targetPoint" />
          </mxGeometry>
        </mxCell>
        <mxCell id="3e5c_zj2qQWMfmJHqovq-44" value="UserID = createUserID" style="edgeLabel;html=1;align=center;verticalAlign=middle;resizable=0;points=[];" vertex="1" connectable="0" parent="3e5c_zj2qQWMfmJHqovq-43">
          <mxGeometry x="0.006" relative="1" as="geometry">
            <mxPoint as="offset" />
          </mxGeometry>
        </mxCell>
        <mxCell id="3e5c_zj2qQWMfmJHqovq-47" value="" style="endArrow=classic;html=1;rounded=0;" edge="1" parent="1">
          <mxGeometry width="50" height="50" relative="1" as="geometry">
            <mxPoint x="650" y="510.52" as="sourcePoint" />
            <mxPoint x="1120" y="510" as="targetPoint" />
          </mxGeometry>
        </mxCell>
        <mxCell id="3e5c_zj2qQWMfmJHqovq-48" value="createNotification(notification)" style="edgeLabel;html=1;align=center;verticalAlign=middle;resizable=0;points=[];" vertex="1" connectable="0" parent="3e5c_zj2qQWMfmJHqovq-47">
          <mxGeometry x="0.006" relative="1" as="geometry">
            <mxPoint as="offset" />
          </mxGeometry>
        </mxCell>
        <mxCell id="3e5c_zj2qQWMfmJHqovq-51" value="" style="shape=umlActor;verticalLabelPosition=bottom;verticalAlign=top;html=1;outlineConnect=0;" vertex="1" parent="1">
          <mxGeometry x="1350" y="140" width="30" height="60" as="geometry" />
        </mxCell>
        <mxCell id="3e5c_zj2qQWMfmJHqovq-52" style="edgeStyle=orthogonalEdgeStyle;rounded=0;orthogonalLoop=1;jettySize=auto;html=1;dashed=1;endArrow=none;endFill=0;" edge="1" parent="1" source="3e5c_zj2qQWMfmJHqovq-53">
          <mxGeometry relative="1" as="geometry">
            <mxPoint x="1355" y="591.4814814814815" as="targetPoint" />
          </mxGeometry>
        </mxCell>
        <mxCell id="3e5c_zj2qQWMfmJHqovq-53" value="User Created" style="html=1;whiteSpace=wrap;" vertex="1" parent="1">
          <mxGeometry x="1300" y="215" width="110" height="50" as="geometry" />
        </mxCell>
        <mxCell id="3e5c_zj2qQWMfmJHqovq-54" value="" style="endArrow=classic;html=1;rounded=0;" edge="1" parent="1">
          <mxGeometry width="50" height="50" relative="1" as="geometry">
            <mxPoint x="1227" y="549" as="sourcePoint" />
            <mxPoint x="1360" y="549" as="targetPoint" />
          </mxGeometry>
        </mxCell>
        <mxCell id="3e5c_zj2qQWMfmJHqovq-55" value="notification" style="edgeLabel;html=1;align=center;verticalAlign=middle;resizable=0;points=[];" vertex="1" connectable="0" parent="3e5c_zj2qQWMfmJHqovq-54">
          <mxGeometry x="0.006" relative="1" as="geometry">
            <mxPoint y="-10" as="offset" />
          </mxGeometry>
        </mxCell>
        <mxCell id="3e5c_zj2qQWMfmJHqovq-56" value="" style="endArrow=classic;html=1;rounded=0;" edge="1" parent="1">
          <mxGeometry width="50" height="50" relative="1" as="geometry">
            <mxPoint x="75" y="320.52" as="sourcePoint" />
            <mxPoint x="499" y="320" as="targetPoint" />
          </mxGeometry>
        </mxCell>
        <mxCell id="3e5c_zj2qQWMfmJHqovq-57" value="getUserAge(User)" style="edgeLabel;html=1;align=center;verticalAlign=middle;resizable=0;points=[];" vertex="1" connectable="0" parent="3e5c_zj2qQWMfmJHqovq-56">
          <mxGeometry x="0.006" relative="1" as="geometry">
            <mxPoint as="offset" />
          </mxGeometry>
        </mxCell>
        <mxCell id="3e5c_zj2qQWMfmJHqovq-58" value="" style="endArrow=classic;html=1;rounded=0;" edge="1" parent="1">
          <mxGeometry width="50" height="50" relative="1" as="geometry">
            <mxPoint x="75" y="340.52" as="sourcePoint" />
            <mxPoint x="499" y="340" as="targetPoint" />
          </mxGeometry>
        </mxCell>
        <mxCell id="3e5c_zj2qQWMfmJHqovq-59" value="getUserGender(User)" style="edgeLabel;html=1;align=center;verticalAlign=middle;resizable=0;points=[];" vertex="1" connectable="0" parent="3e5c_zj2qQWMfmJHqovq-58">
          <mxGeometry x="0.006" relative="1" as="geometry">
            <mxPoint as="offset" />
          </mxGeometry>
        </mxCell>
        <mxCell id="3e5c_zj2qQWMfmJHqovq-60" value="" style="endArrow=classic;html=1;rounded=0;" edge="1" parent="1">
          <mxGeometry width="50" height="50" relative="1" as="geometry">
            <mxPoint x="75" y="360.52" as="sourcePoint" />
            <mxPoint x="499" y="360" as="targetPoint" />
          </mxGeometry>
        </mxCell>
        <mxCell id="3e5c_zj2qQWMfmJHqovq-61" value="getUserAddress(User)" style="edgeLabel;html=1;align=center;verticalAlign=middle;resizable=0;points=[];" vertex="1" connectable="0" parent="3e5c_zj2qQWMfmJHqovq-60">
          <mxGeometry x="0.006" relative="1" as="geometry">
            <mxPoint as="offset" />
          </mxGeometry>
        </mxCell>
        <mxCell id="3e5c_zj2qQWMfmJHqovq-62" value="" style="endArrow=classic;html=1;rounded=0;" edge="1" parent="1">
          <mxGeometry width="50" height="50" relative="1" as="geometry">
            <mxPoint x="75" y="380.52" as="sourcePoint" />
            <mxPoint x="499" y="380" as="targetPoint" />
          </mxGeometry>
        </mxCell>
        <mxCell id="3e5c_zj2qQWMfmJHqovq-63" value="getUserPhoneNumber(User)" style="edgeLabel;html=1;align=center;verticalAlign=middle;resizable=0;points=[];" vertex="1" connectable="0" parent="3e5c_zj2qQWMfmJHqovq-62">
          <mxGeometry x="0.006" relative="1" as="geometry">
            <mxPoint as="offset" />
          </mxGeometry>
        </mxCell>
        <mxCell id="3e5c_zj2qQWMfmJHqovq-64" value="" style="endArrow=classic;html=1;rounded=0;" edge="1" parent="1">
          <mxGeometry width="50" height="50" relative="1" as="geometry">
            <mxPoint x="75" y="400.52" as="sourcePoint" />
            <mxPoint x="499" y="400" as="targetPoint" />
          </mxGeometry>
        </mxCell>
        <mxCell id="3e5c_zj2qQWMfmJHqovq-65" value="getUserOrderHistory(User)" style="edgeLabel;html=1;align=center;verticalAlign=middle;resizable=0;points=[];" vertex="1" connectable="0" parent="3e5c_zj2qQWMfmJHqovq-64">
          <mxGeometry x="0.006" relative="1" as="geometry">
            <mxPoint as="offset" />
          </mxGeometry>
        </mxCell>
      </root>
    </mxGraphModel>
  </diagram>
  <diagram id="JTBOJ2qTST2d8ZjZ27Ni" name="Order History ">
    <mxGraphModel dx="1178" dy="628" grid="1" gridSize="10" guides="1" tooltips="1" connect="1" arrows="1" fold="1" page="1" pageScale="1" pageWidth="850" pageHeight="1100" math="0" shadow="0">
      <root>
        <mxCell id="0" />
        <mxCell id="1" parent="0" />
        <mxCell id="0RhiJL5aRnZAU0_APJ90-3" value="Member" style="html=1;whiteSpace=wrap;" vertex="1" parent="1">
          <mxGeometry x="75" y="120" width="110" height="50" as="geometry" />
        </mxCell>
        <mxCell id="0RhiJL5aRnZAU0_APJ90-4" style="edgeStyle=orthogonalEdgeStyle;rounded=0;orthogonalLoop=1;jettySize=auto;html=1;endArrow=none;endFill=0;dashed=1;" edge="1" parent="1" source="0RhiJL5aRnZAU0_APJ90-5">
          <mxGeometry relative="1" as="geometry">
            <mxPoint x="500" y="600" as="targetPoint" />
            <Array as="points">
              <mxPoint x="500" y="600" />
            </Array>
          </mxGeometry>
        </mxCell>
        <mxCell id="0RhiJL5aRnZAU0_APJ90-5" value="SendOrderHistoryUI" style="html=1;whiteSpace=wrap;" vertex="1" parent="1">
          <mxGeometry x="420" y="120" width="135" height="50" as="geometry" />
        </mxCell>
        <mxCell id="0RhiJL5aRnZAU0_APJ90-6" value="" style="shape=umlActor;verticalLabelPosition=bottom;verticalAlign=top;html=1;" vertex="1" parent="1">
          <mxGeometry x="115" y="50" width="30" height="60" as="geometry" />
        </mxCell>
        <mxCell id="0RhiJL5aRnZAU0_APJ90-7" style="edgeStyle=orthogonalEdgeStyle;rounded=0;orthogonalLoop=1;jettySize=auto;html=1;exitX=0;exitY=1;exitDx=0;exitDy=0;endArrow=none;endFill=0;dashed=1;" edge="1" parent="1" source="0RhiJL5aRnZAU0_APJ90-3">
          <mxGeometry relative="1" as="geometry">
            <mxPoint x="75" y="610" as="targetPoint" />
            <Array as="points">
              <mxPoint x="75" y="450" />
              <mxPoint x="75" y="450" />
            </Array>
          </mxGeometry>
        </mxCell>
        <mxCell id="0RhiJL5aRnZAU0_APJ90-8" value="" style="endArrow=classic;html=1;rounded=0;" edge="1" parent="1">
          <mxGeometry width="50" height="50" relative="1" as="geometry">
            <mxPoint x="75" y="190" as="sourcePoint" />
            <mxPoint x="499" y="190" as="targetPoint" />
          </mxGeometry>
        </mxCell>
        <mxCell id="0RhiJL5aRnZAU0_APJ90-9" value="selectOrderHistory(OrderHistory)" style="edgeLabel;html=1;align=center;verticalAlign=middle;resizable=0;points=[];" vertex="1" connectable="0" parent="0RhiJL5aRnZAU0_APJ90-8">
          <mxGeometry x="0.006" relative="1" as="geometry">
            <mxPoint as="offset" />
          </mxGeometry>
        </mxCell>
        <mxCell id="0RhiJL5aRnZAU0_APJ90-10" value="" style="endArrow=none;html=1;rounded=0;startArrow=open;startFill=0;endFill=0;dashed=1;" edge="1" parent="1">
          <mxGeometry width="50" height="50" relative="1" as="geometry">
            <mxPoint x="76" y="267" as="sourcePoint" />
            <mxPoint x="495" y="267" as="targetPoint" />
          </mxGeometry>
        </mxCell>
        <mxCell id="0RhiJL5aRnZAU0_APJ90-11" value="order history dates, times" style="edgeLabel;html=1;align=center;verticalAlign=middle;resizable=0;points=[];" vertex="1" connectable="0" parent="0RhiJL5aRnZAU0_APJ90-10">
          <mxGeometry x="0.006" relative="1" as="geometry">
            <mxPoint as="offset" />
          </mxGeometry>
        </mxCell>
        <mxCell id="0RhiJL5aRnZAU0_APJ90-12" value="" style="endArrow=classic;html=1;rounded=0;" edge="1" parent="1">
          <mxGeometry width="50" height="50" relative="1" as="geometry">
            <mxPoint x="76" y="297" as="sourcePoint" />
            <mxPoint x="500" y="296" as="targetPoint" />
          </mxGeometry>
        </mxCell>
        <mxCell id="0RhiJL5aRnZAU0_APJ90-13" value="enterOrderHistoryTimes" style="edgeLabel;html=1;align=center;verticalAlign=middle;resizable=0;points=[];" vertex="1" connectable="0" parent="0RhiJL5aRnZAU0_APJ90-12">
          <mxGeometry x="0.006" relative="1" as="geometry">
            <mxPoint as="offset" />
          </mxGeometry>
        </mxCell>
        <mxCell id="0RhiJL5aRnZAU0_APJ90-14" value="" style="endArrow=none;html=1;rounded=0;startArrow=open;startFill=0;endFill=0;dashed=1;" edge="1" parent="1">
          <mxGeometry width="50" height="50" relative="1" as="geometry">
            <mxPoint x="75" y="340" as="sourcePoint" />
            <mxPoint x="499" y="340" as="targetPoint" />
          </mxGeometry>
        </mxCell>
        <mxCell id="0RhiJL5aRnZAU0_APJ90-15" value="activated send button" style="edgeLabel;html=1;align=center;verticalAlign=middle;resizable=0;points=[];" vertex="1" connectable="0" parent="0RhiJL5aRnZAU0_APJ90-14">
          <mxGeometry x="0.006" relative="1" as="geometry">
            <mxPoint as="offset" />
          </mxGeometry>
        </mxCell>
        <mxCell id="0RhiJL5aRnZAU0_APJ90-16" value="" style="endArrow=classic;html=1;rounded=0;" edge="1" parent="1">
          <mxGeometry width="50" height="50" relative="1" as="geometry">
            <mxPoint x="75" y="360.52" as="sourcePoint" />
            <mxPoint x="499" y="360" as="targetPoint" />
          </mxGeometry>
        </mxCell>
        <mxCell id="0RhiJL5aRnZAU0_APJ90-17" value="sendListOfOrders(Orders)" style="edgeLabel;html=1;align=center;verticalAlign=middle;resizable=0;points=[];" vertex="1" connectable="0" parent="0RhiJL5aRnZAU0_APJ90-16">
          <mxGeometry x="0.006" relative="1" as="geometry">
            <mxPoint as="offset" />
          </mxGeometry>
        </mxCell>
        <mxCell id="0RhiJL5aRnZAU0_APJ90-18" value="" style="endArrow=none;html=1;rounded=0;startArrow=open;startFill=0;endFill=0;dashed=1;" edge="1" parent="1">
          <mxGeometry width="50" height="50" relative="1" as="geometry">
            <mxPoint x="75" y="446" as="sourcePoint" />
            <mxPoint x="810" y="446" as="targetPoint" />
          </mxGeometry>
        </mxCell>
        <mxCell id="0RhiJL5aRnZAU0_APJ90-19" value="updated channel feed with new message" style="edgeLabel;html=1;align=center;verticalAlign=middle;resizable=0;points=[];" vertex="1" connectable="0" parent="0RhiJL5aRnZAU0_APJ90-18">
          <mxGeometry x="0.006" relative="1" as="geometry">
            <mxPoint x="-65" as="offset" />
          </mxGeometry>
        </mxCell>
        <mxCell id="0RhiJL5aRnZAU0_APJ90-20" value="" style="endArrow=open;html=1;strokeWidth=1;rounded=0;endFill=0;" edge="1" parent="1">
          <mxGeometry width="50" height="50" relative="1" as="geometry">
            <mxPoint x="650" y="590" as="sourcePoint" />
            <mxPoint x="1230" y="590" as="targetPoint" />
          </mxGeometry>
        </mxCell>
        <mxCell id="0RhiJL5aRnZAU0_APJ90-21" value="sendNotification(notification)" style="edgeLabel;html=1;align=center;verticalAlign=middle;resizable=0;points=[];" vertex="1" connectable="0" parent="0RhiJL5aRnZAU0_APJ90-20">
          <mxGeometry x="-0.171" y="-1" relative="1" as="geometry">
            <mxPoint x="-16" y="-1" as="offset" />
          </mxGeometry>
        </mxCell>
        <mxCell id="0RhiJL5aRnZAU0_APJ90-22" style="edgeStyle=orthogonalEdgeStyle;rounded=0;orthogonalLoop=1;jettySize=auto;html=1;dashed=1;endArrow=none;endFill=0;" edge="1" parent="1" source="0RhiJL5aRnZAU0_APJ90-23">
          <mxGeometry relative="1" as="geometry">
            <mxPoint x="1228" y="591" as="targetPoint" />
          </mxGeometry>
        </mxCell>
        <mxCell id="0RhiJL5aRnZAU0_APJ90-23" value="NotificationUI" style="html=1;whiteSpace=wrap;" vertex="1" parent="1">
          <mxGeometry x="1173" y="215" width="110" height="50" as="geometry" />
        </mxCell>
        <mxCell id="0RhiJL5aRnZAU0_APJ90-24" value="&lt;font style=&quot;font-size: 14px;&quot;&gt;Case:&lt;br&gt;Send Order History&lt;/font&gt;" style="text;html=1;align=center;verticalAlign=middle;resizable=0;points=[];autosize=1;strokeColor=none;fillColor=none;" vertex="1" parent="1">
          <mxGeometry x="235" y="100" width="140" height="50" as="geometry" />
        </mxCell>
        <mxCell id="0RhiJL5aRnZAU0_APJ90-25" style="edgeStyle=orthogonalEdgeStyle;rounded=0;orthogonalLoop=1;jettySize=auto;html=1;endArrow=none;endFill=0;dashed=1;" edge="1" parent="1" source="0RhiJL5aRnZAU0_APJ90-26">
          <mxGeometry relative="1" as="geometry">
            <mxPoint x="650" y="600" as="targetPoint" />
            <Array as="points">
              <mxPoint x="650" y="600" />
            </Array>
          </mxGeometry>
        </mxCell>
        <mxCell id="0RhiJL5aRnZAU0_APJ90-26" value="&amp;lt;&amp;lt;controller&amp;gt;&amp;gt;&lt;br&gt;SendListOfOrders" style="html=1;whiteSpace=wrap;" vertex="1" parent="1">
          <mxGeometry x="580" y="120" width="140" height="50" as="geometry" />
        </mxCell>
        <mxCell id="0RhiJL5aRnZAU0_APJ90-27" style="edgeStyle=orthogonalEdgeStyle;rounded=0;orthogonalLoop=1;jettySize=auto;html=1;endArrow=none;endFill=0;dashed=1;" edge="1" parent="1">
          <mxGeometry relative="1" as="geometry">
            <mxPoint x="990" y="590" as="targetPoint" />
            <Array as="points">
              <mxPoint x="990" y="600" />
            </Array>
            <mxPoint x="990" y="170.0000000000001" as="sourcePoint" />
          </mxGeometry>
        </mxCell>
        <mxCell id="0RhiJL5aRnZAU0_APJ90-28" value="&amp;lt;&amp;lt;entity&amp;gt;&amp;gt;&lt;br&gt;ListOfOrderLength" style="html=1;whiteSpace=wrap;" vertex="1" parent="1">
          <mxGeometry x="920" y="130" width="114" height="40" as="geometry" />
        </mxCell>
        <mxCell id="0RhiJL5aRnZAU0_APJ90-29" style="edgeStyle=orthogonalEdgeStyle;rounded=0;orthogonalLoop=1;jettySize=auto;html=1;endArrow=none;endFill=0;dashed=1;" edge="1" parent="1">
          <mxGeometry relative="1" as="geometry">
            <mxPoint x="1123" y="590" as="targetPoint" />
            <Array as="points">
              <mxPoint x="1123" y="600" />
            </Array>
            <mxPoint x="1123" y="170.0000000000001" as="sourcePoint" />
          </mxGeometry>
        </mxCell>
        <mxCell id="0RhiJL5aRnZAU0_APJ90-30" value="&amp;lt;&amp;lt;entity&amp;gt;&amp;gt;&lt;br&gt;Notification" style="html=1;whiteSpace=wrap;" vertex="1" parent="1">
          <mxGeometry x="1063" y="120" width="110" height="50" as="geometry" />
        </mxCell>
        <mxCell id="0RhiJL5aRnZAU0_APJ90-31" style="edgeStyle=orthogonalEdgeStyle;rounded=0;orthogonalLoop=1;jettySize=auto;html=1;endArrow=none;endFill=0;dashed=1;" edge="1" parent="1">
          <mxGeometry relative="1" as="geometry">
            <mxPoint x="812" y="590" as="targetPoint" />
            <Array as="points">
              <mxPoint x="812" y="600" />
            </Array>
            <mxPoint x="812" y="170.0000000000001" as="sourcePoint" />
          </mxGeometry>
        </mxCell>
        <mxCell id="0RhiJL5aRnZAU0_APJ90-32" value="&amp;lt;&amp;lt;entity&amp;gt;&amp;gt;&lt;br&gt;OrderHistory" style="html=1;whiteSpace=wrap;" vertex="1" parent="1">
          <mxGeometry x="755" y="119" width="110" height="50" as="geometry" />
        </mxCell>
        <mxCell id="0RhiJL5aRnZAU0_APJ90-33" value="" style="endArrow=classic;html=1;rounded=0;" edge="1" parent="1">
          <mxGeometry width="50" height="50" relative="1" as="geometry">
            <mxPoint x="500" y="215" as="sourcePoint" />
            <mxPoint x="650" y="215" as="targetPoint" />
          </mxGeometry>
        </mxCell>
        <mxCell id="0RhiJL5aRnZAU0_APJ90-34" value="selectListOfOrderLength" style="edgeLabel;html=1;align=center;verticalAlign=middle;resizable=0;points=[];" vertex="1" connectable="0" parent="0RhiJL5aRnZAU0_APJ90-33">
          <mxGeometry x="0.006" relative="1" as="geometry">
            <mxPoint as="offset" />
          </mxGeometry>
        </mxCell>
        <mxCell id="0RhiJL5aRnZAU0_APJ90-35" value="" style="endArrow=classic;html=1;rounded=0;" edge="1" parent="1">
          <mxGeometry width="50" height="50" relative="1" as="geometry">
            <mxPoint x="650" y="230" as="sourcePoint" />
            <mxPoint x="810" y="230" as="targetPoint" />
          </mxGeometry>
        </mxCell>
        <mxCell id="0RhiJL5aRnZAU0_APJ90-36" value="selectListOfOrderLength" style="edgeLabel;html=1;align=center;verticalAlign=middle;resizable=0;points=[];" vertex="1" connectable="0" parent="0RhiJL5aRnZAU0_APJ90-35">
          <mxGeometry x="0.006" relative="1" as="geometry">
            <mxPoint as="offset" />
          </mxGeometry>
        </mxCell>
        <mxCell id="0RhiJL5aRnZAU0_APJ90-37" value="" style="endArrow=classic;html=1;rounded=0;" edge="1" parent="1">
          <mxGeometry width="50" height="50" relative="1" as="geometry">
            <mxPoint x="810" y="250" as="sourcePoint" />
            <mxPoint x="990" y="250" as="targetPoint" />
          </mxGeometry>
        </mxCell>
        <mxCell id="0RhiJL5aRnZAU0_APJ90-38" value="ListOfOrderLength= getListOfOrderHistory" style="edgeLabel;html=1;align=center;verticalAlign=middle;resizable=0;points=[];" vertex="1" connectable="0" parent="0RhiJL5aRnZAU0_APJ90-37">
          <mxGeometry x="0.006" relative="1" as="geometry">
            <mxPoint y="-10" as="offset" />
          </mxGeometry>
        </mxCell>
        <mxCell id="0RhiJL5aRnZAU0_APJ90-39" value="" style="endArrow=none;html=1;rounded=0;startArrow=classic;startFill=1;endFill=0;dashed=1;" edge="1" parent="1">
          <mxGeometry width="50" height="50" relative="1" as="geometry">
            <mxPoint x="650" y="250" as="sourcePoint" />
            <mxPoint x="810" y="250" as="targetPoint" />
          </mxGeometry>
        </mxCell>
        <mxCell id="0RhiJL5aRnZAU0_APJ90-40" value="channelFeed" style="edgeLabel;html=1;align=center;verticalAlign=middle;resizable=0;points=[];" vertex="1" connectable="0" parent="0RhiJL5aRnZAU0_APJ90-39">
          <mxGeometry x="0.006" relative="1" as="geometry">
            <mxPoint as="offset" />
          </mxGeometry>
        </mxCell>
        <mxCell id="0RhiJL5aRnZAU0_APJ90-41" value="" style="endArrow=none;html=1;rounded=0;startArrow=classic;startFill=1;endFill=0;dashed=1;" edge="1" parent="1">
          <mxGeometry width="50" height="50" relative="1" as="geometry">
            <mxPoint x="500" y="250" as="sourcePoint" />
            <mxPoint x="650" y="250" as="targetPoint" />
          </mxGeometry>
        </mxCell>
        <mxCell id="0RhiJL5aRnZAU0_APJ90-42" value="channelFeed" style="edgeLabel;html=1;align=center;verticalAlign=middle;resizable=0;points=[];" vertex="1" connectable="0" parent="0RhiJL5aRnZAU0_APJ90-41">
          <mxGeometry x="0.006" relative="1" as="geometry">
            <mxPoint as="offset" />
          </mxGeometry>
        </mxCell>
        <mxCell id="0RhiJL5aRnZAU0_APJ90-43" value="" style="endArrow=classic;html=1;rounded=0;" edge="1" parent="1">
          <mxGeometry width="50" height="50" relative="1" as="geometry">
            <mxPoint x="500" y="380.52" as="sourcePoint" />
            <mxPoint x="650" y="380" as="targetPoint" />
          </mxGeometry>
        </mxCell>
        <mxCell id="0RhiJL5aRnZAU0_APJ90-44" value="sendListOfOrders(Orders)" style="edgeLabel;html=1;align=center;verticalAlign=middle;resizable=0;points=[];" vertex="1" connectable="0" parent="0RhiJL5aRnZAU0_APJ90-43">
          <mxGeometry x="0.006" relative="1" as="geometry">
            <mxPoint as="offset" />
          </mxGeometry>
        </mxCell>
        <mxCell id="0RhiJL5aRnZAU0_APJ90-45" value="" style="endArrow=classic;html=1;rounded=0;" edge="1" parent="1">
          <mxGeometry width="50" height="50" relative="1" as="geometry">
            <mxPoint x="650" y="400.52" as="sourcePoint" />
            <mxPoint x="990" y="400" as="targetPoint" />
          </mxGeometry>
        </mxCell>
        <mxCell id="0RhiJL5aRnZAU0_APJ90-46" value="ListOfOrders= getListOfOrders" style="edgeLabel;html=1;align=center;verticalAlign=middle;resizable=0;points=[];" vertex="1" connectable="0" parent="0RhiJL5aRnZAU0_APJ90-45">
          <mxGeometry x="0.006" relative="1" as="geometry">
            <mxPoint as="offset" />
          </mxGeometry>
        </mxCell>
        <mxCell id="0RhiJL5aRnZAU0_APJ90-49" value="" style="endArrow=classic;html=1;rounded=0;" edge="1" parent="1">
          <mxGeometry width="50" height="50" relative="1" as="geometry">
            <mxPoint x="650" y="510.52" as="sourcePoint" />
            <mxPoint x="1120" y="510" as="targetPoint" />
          </mxGeometry>
        </mxCell>
        <mxCell id="0RhiJL5aRnZAU0_APJ90-50" value="createNotification(notification)" style="edgeLabel;html=1;align=center;verticalAlign=middle;resizable=0;points=[];" vertex="1" connectable="0" parent="0RhiJL5aRnZAU0_APJ90-49">
          <mxGeometry x="0.006" relative="1" as="geometry">
            <mxPoint as="offset" />
          </mxGeometry>
        </mxCell>
        <mxCell id="0RhiJL5aRnZAU0_APJ90-53" value="" style="shape=umlActor;verticalLabelPosition=bottom;verticalAlign=top;html=1;outlineConnect=0;" vertex="1" parent="1">
          <mxGeometry x="1350" y="140" width="30" height="60" as="geometry" />
        </mxCell>
        <mxCell id="0RhiJL5aRnZAU0_APJ90-54" style="edgeStyle=orthogonalEdgeStyle;rounded=0;orthogonalLoop=1;jettySize=auto;html=1;dashed=1;endArrow=none;endFill=0;" edge="1" parent="1" source="0RhiJL5aRnZAU0_APJ90-55">
          <mxGeometry relative="1" as="geometry">
            <mxPoint x="1355" y="591.4814814814815" as="targetPoint" />
          </mxGeometry>
        </mxCell>
        <mxCell id="0RhiJL5aRnZAU0_APJ90-55" value="User Order History" style="html=1;whiteSpace=wrap;" vertex="1" parent="1">
          <mxGeometry x="1300" y="215" width="110" height="50" as="geometry" />
        </mxCell>
        <mxCell id="0RhiJL5aRnZAU0_APJ90-56" value="" style="endArrow=classic;html=1;rounded=0;" edge="1" parent="1">
          <mxGeometry width="50" height="50" relative="1" as="geometry">
            <mxPoint x="1227" y="549" as="sourcePoint" />
            <mxPoint x="1360" y="549" as="targetPoint" />
          </mxGeometry>
        </mxCell>
        <mxCell id="0RhiJL5aRnZAU0_APJ90-57" value="notification" style="edgeLabel;html=1;align=center;verticalAlign=middle;resizable=0;points=[];" vertex="1" connectable="0" parent="0RhiJL5aRnZAU0_APJ90-56">
          <mxGeometry x="0.006" relative="1" as="geometry">
            <mxPoint y="-10" as="offset" />
          </mxGeometry>
        </mxCell>
        <mxCell id="SHvzPj3Sak5IxGeVi6Vv-2" value="" style="endArrow=classic;html=1;rounded=0;" edge="1" parent="1">
          <mxGeometry width="50" height="50" relative="1" as="geometry">
            <mxPoint x="75" y="321" as="sourcePoint" />
            <mxPoint x="499" y="320" as="targetPoint" />
          </mxGeometry>
        </mxCell>
        <mxCell id="SHvzPj3Sak5IxGeVi6Vv-3" value="enterOrderHistoryDates" style="edgeLabel;html=1;align=center;verticalAlign=middle;resizable=0;points=[];" vertex="1" connectable="0" parent="SHvzPj3Sak5IxGeVi6Vv-2">
          <mxGeometry x="0.006" relative="1" as="geometry">
            <mxPoint as="offset" />
          </mxGeometry>
        </mxCell>
      </root>
    </mxGraphModel>
  </diagram>
  <diagram id="4Qex9355kNgzUM_d8uGg" name="Account">
    <mxGraphModel dx="1178" dy="628" grid="1" gridSize="10" guides="1" tooltips="1" connect="1" arrows="1" fold="1" page="1" pageScale="1" pageWidth="850" pageHeight="1100" math="0" shadow="0">
      <root>
        <mxCell id="0" />
        <mxCell id="1" parent="0" />
        <mxCell id="A4Fo1HYIouLELJopiVxz-1" value="Member" style="html=1;whiteSpace=wrap;" vertex="1" parent="1">
          <mxGeometry x="75" y="120" width="110" height="50" as="geometry" />
        </mxCell>
        <mxCell id="A4Fo1HYIouLELJopiVxz-2" style="edgeStyle=orthogonalEdgeStyle;rounded=0;orthogonalLoop=1;jettySize=auto;html=1;endArrow=none;endFill=0;dashed=1;" edge="1" parent="1" source="A4Fo1HYIouLELJopiVxz-3">
          <mxGeometry relative="1" as="geometry">
            <mxPoint x="500" y="600" as="targetPoint" />
            <Array as="points">
              <mxPoint x="500" y="600" />
            </Array>
          </mxGeometry>
        </mxCell>
        <mxCell id="A4Fo1HYIouLELJopiVxz-3" value="CreateAccountUI" style="html=1;whiteSpace=wrap;" vertex="1" parent="1">
          <mxGeometry x="445" y="120" width="110" height="50" as="geometry" />
        </mxCell>
        <mxCell id="A4Fo1HYIouLELJopiVxz-4" value="" style="shape=umlActor;verticalLabelPosition=bottom;verticalAlign=top;html=1;" vertex="1" parent="1">
          <mxGeometry x="115" y="50" width="30" height="60" as="geometry" />
        </mxCell>
        <mxCell id="A4Fo1HYIouLELJopiVxz-5" style="edgeStyle=orthogonalEdgeStyle;rounded=0;orthogonalLoop=1;jettySize=auto;html=1;exitX=0;exitY=1;exitDx=0;exitDy=0;endArrow=none;endFill=0;dashed=1;" edge="1" parent="1" source="A4Fo1HYIouLELJopiVxz-1">
          <mxGeometry relative="1" as="geometry">
            <mxPoint x="75" y="610" as="targetPoint" />
            <Array as="points">
              <mxPoint x="75" y="450" />
              <mxPoint x="75" y="450" />
            </Array>
          </mxGeometry>
        </mxCell>
        <mxCell id="A4Fo1HYIouLELJopiVxz-6" value="" style="endArrow=classic;html=1;rounded=0;" edge="1" parent="1">
          <mxGeometry width="50" height="50" relative="1" as="geometry">
            <mxPoint x="75" y="190" as="sourcePoint" />
            <mxPoint x="499" y="190" as="targetPoint" />
          </mxGeometry>
        </mxCell>
        <mxCell id="A4Fo1HYIouLELJopiVxz-7" value="selectUser(User)" style="edgeLabel;html=1;align=center;verticalAlign=middle;resizable=0;points=[];" vertex="1" connectable="0" parent="A4Fo1HYIouLELJopiVxz-6">
          <mxGeometry x="0.006" relative="1" as="geometry">
            <mxPoint as="offset" />
          </mxGeometry>
        </mxCell>
        <mxCell id="A4Fo1HYIouLELJopiVxz-8" value="" style="endArrow=none;html=1;rounded=0;startArrow=open;startFill=0;endFill=0;dashed=1;" edge="1" parent="1">
          <mxGeometry width="50" height="50" relative="1" as="geometry">
            <mxPoint x="75" y="230" as="sourcePoint" />
            <mxPoint x="494" y="230" as="targetPoint" />
          </mxGeometry>
        </mxCell>
        <mxCell id="A4Fo1HYIouLELJopiVxz-9" value="username, birthdate, email, subscription, paymentCardNumber" style="edgeLabel;html=1;align=center;verticalAlign=middle;resizable=0;points=[];" vertex="1" connectable="0" parent="A4Fo1HYIouLELJopiVxz-8">
          <mxGeometry x="0.006" relative="1" as="geometry">
            <mxPoint y="-7" as="offset" />
          </mxGeometry>
        </mxCell>
        <mxCell id="A4Fo1HYIouLELJopiVxz-10" value="" style="endArrow=classic;html=1;rounded=0;" edge="1" parent="1">
          <mxGeometry width="50" height="50" relative="1" as="geometry">
            <mxPoint x="75" y="281" as="sourcePoint" />
            <mxPoint x="499" y="280" as="targetPoint" />
          </mxGeometry>
        </mxCell>
        <mxCell id="A4Fo1HYIouLELJopiVxz-11" value="getUserName(Account)" style="edgeLabel;html=1;align=center;verticalAlign=middle;resizable=0;points=[];" vertex="1" connectable="0" parent="A4Fo1HYIouLELJopiVxz-10">
          <mxGeometry x="0.006" relative="1" as="geometry">
            <mxPoint as="offset" />
          </mxGeometry>
        </mxCell>
        <mxCell id="A4Fo1HYIouLELJopiVxz-12" value="" style="endArrow=none;html=1;rounded=0;startArrow=open;startFill=0;endFill=0;dashed=1;" edge="1" parent="1">
          <mxGeometry width="50" height="50" relative="1" as="geometry">
            <mxPoint x="75" y="400" as="sourcePoint" />
            <mxPoint x="499" y="400" as="targetPoint" />
          </mxGeometry>
        </mxCell>
        <mxCell id="A4Fo1HYIouLELJopiVxz-13" value="activated send button" style="edgeLabel;html=1;align=center;verticalAlign=middle;resizable=0;points=[];" vertex="1" connectable="0" parent="A4Fo1HYIouLELJopiVxz-12">
          <mxGeometry x="0.006" relative="1" as="geometry">
            <mxPoint as="offset" />
          </mxGeometry>
        </mxCell>
        <mxCell id="A4Fo1HYIouLELJopiVxz-14" value="" style="endArrow=classic;html=1;rounded=0;" edge="1" parent="1">
          <mxGeometry width="50" height="50" relative="1" as="geometry">
            <mxPoint x="75" y="300.52" as="sourcePoint" />
            <mxPoint x="499" y="300" as="targetPoint" />
          </mxGeometry>
        </mxCell>
        <mxCell id="A4Fo1HYIouLELJopiVxz-15" value="getBirthdate(Account)" style="edgeLabel;html=1;align=center;verticalAlign=middle;resizable=0;points=[];" vertex="1" connectable="0" parent="A4Fo1HYIouLELJopiVxz-14">
          <mxGeometry x="0.006" relative="1" as="geometry">
            <mxPoint as="offset" />
          </mxGeometry>
        </mxCell>
        <mxCell id="A4Fo1HYIouLELJopiVxz-16" value="" style="endArrow=none;html=1;rounded=0;startArrow=open;startFill=0;endFill=0;dashed=1;" edge="1" parent="1">
          <mxGeometry width="50" height="50" relative="1" as="geometry">
            <mxPoint x="75" y="446" as="sourcePoint" />
            <mxPoint x="810" y="446" as="targetPoint" />
          </mxGeometry>
        </mxCell>
        <mxCell id="A4Fo1HYIouLELJopiVxz-17" value="updated user feed with user message" style="edgeLabel;html=1;align=center;verticalAlign=middle;resizable=0;points=[];" vertex="1" connectable="0" parent="A4Fo1HYIouLELJopiVxz-16">
          <mxGeometry x="0.006" relative="1" as="geometry">
            <mxPoint x="-65" as="offset" />
          </mxGeometry>
        </mxCell>
        <mxCell id="A4Fo1HYIouLELJopiVxz-18" value="" style="endArrow=open;html=1;strokeWidth=1;rounded=0;endFill=0;" edge="1" parent="1">
          <mxGeometry width="50" height="50" relative="1" as="geometry">
            <mxPoint x="650" y="590" as="sourcePoint" />
            <mxPoint x="1230" y="590" as="targetPoint" />
          </mxGeometry>
        </mxCell>
        <mxCell id="A4Fo1HYIouLELJopiVxz-19" value="sendNotification(notification,)" style="edgeLabel;html=1;align=center;verticalAlign=middle;resizable=0;points=[];" vertex="1" connectable="0" parent="A4Fo1HYIouLELJopiVxz-18">
          <mxGeometry x="-0.171" y="-1" relative="1" as="geometry">
            <mxPoint x="-16" y="-1" as="offset" />
          </mxGeometry>
        </mxCell>
        <mxCell id="A4Fo1HYIouLELJopiVxz-20" style="edgeStyle=orthogonalEdgeStyle;rounded=0;orthogonalLoop=1;jettySize=auto;html=1;dashed=1;endArrow=none;endFill=0;" edge="1" parent="1" source="A4Fo1HYIouLELJopiVxz-21">
          <mxGeometry relative="1" as="geometry">
            <mxPoint x="1228" y="591" as="targetPoint" />
          </mxGeometry>
        </mxCell>
        <mxCell id="A4Fo1HYIouLELJopiVxz-21" value="NotificationUI" style="html=1;whiteSpace=wrap;" vertex="1" parent="1">
          <mxGeometry x="1173" y="215" width="110" height="50" as="geometry" />
        </mxCell>
        <mxCell id="A4Fo1HYIouLELJopiVxz-22" value="&lt;font style=&quot;font-size: 14px;&quot;&gt;Case:&lt;br&gt;Create Account&lt;/font&gt;" style="text;html=1;align=center;verticalAlign=middle;resizable=0;points=[];autosize=1;strokeColor=none;fillColor=none;" vertex="1" parent="1">
          <mxGeometry x="245" y="100" width="120" height="50" as="geometry" />
        </mxCell>
        <mxCell id="A4Fo1HYIouLELJopiVxz-23" style="edgeStyle=orthogonalEdgeStyle;rounded=0;orthogonalLoop=1;jettySize=auto;html=1;endArrow=none;endFill=0;dashed=1;" edge="1" parent="1" source="A4Fo1HYIouLELJopiVxz-24">
          <mxGeometry relative="1" as="geometry">
            <mxPoint x="650" y="600" as="targetPoint" />
            <Array as="points">
              <mxPoint x="650" y="600" />
            </Array>
          </mxGeometry>
        </mxCell>
        <mxCell id="A4Fo1HYIouLELJopiVxz-24" value="&amp;lt;&amp;lt;controller&amp;gt;&amp;gt;&lt;br&gt;SetAccount" style="html=1;whiteSpace=wrap;" vertex="1" parent="1">
          <mxGeometry x="580" y="119" width="140" height="50" as="geometry" />
        </mxCell>
        <mxCell id="A4Fo1HYIouLELJopiVxz-27" style="edgeStyle=orthogonalEdgeStyle;rounded=0;orthogonalLoop=1;jettySize=auto;html=1;endArrow=none;endFill=0;dashed=1;" edge="1" parent="1">
          <mxGeometry relative="1" as="geometry">
            <mxPoint x="1123" y="590" as="targetPoint" />
            <Array as="points">
              <mxPoint x="1123" y="600" />
            </Array>
            <mxPoint x="1123" y="170.0000000000001" as="sourcePoint" />
          </mxGeometry>
        </mxCell>
        <mxCell id="A4Fo1HYIouLELJopiVxz-28" value="&amp;lt;&amp;lt;entity&amp;gt;&amp;gt;&lt;br&gt;Notification" style="html=1;whiteSpace=wrap;" vertex="1" parent="1">
          <mxGeometry x="1063" y="120" width="110" height="50" as="geometry" />
        </mxCell>
        <mxCell id="A4Fo1HYIouLELJopiVxz-29" style="edgeStyle=orthogonalEdgeStyle;rounded=0;orthogonalLoop=1;jettySize=auto;html=1;endArrow=none;endFill=0;dashed=1;" edge="1" parent="1">
          <mxGeometry relative="1" as="geometry">
            <mxPoint x="812" y="590" as="targetPoint" />
            <Array as="points">
              <mxPoint x="812" y="600" />
            </Array>
            <mxPoint x="812" y="170.0000000000001" as="sourcePoint" />
          </mxGeometry>
        </mxCell>
        <mxCell id="A4Fo1HYIouLELJopiVxz-30" value="&amp;lt;&amp;lt;entity&amp;gt;&amp;gt;&lt;br&gt;AccountUserName" style="html=1;whiteSpace=wrap;" vertex="1" parent="1">
          <mxGeometry x="755" y="119" width="110" height="50" as="geometry" />
        </mxCell>
        <mxCell id="A4Fo1HYIouLELJopiVxz-31" value="" style="endArrow=classic;html=1;rounded=0;" edge="1" parent="1">
          <mxGeometry width="50" height="50" relative="1" as="geometry">
            <mxPoint x="500" y="215" as="sourcePoint" />
            <mxPoint x="650" y="215" as="targetPoint" />
          </mxGeometry>
        </mxCell>
        <mxCell id="A4Fo1HYIouLELJopiVxz-32" value="selectSetAccount(Account)" style="edgeLabel;html=1;align=center;verticalAlign=middle;resizable=0;points=[];" vertex="1" connectable="0" parent="A4Fo1HYIouLELJopiVxz-31">
          <mxGeometry x="0.006" relative="1" as="geometry">
            <mxPoint as="offset" />
          </mxGeometry>
        </mxCell>
        <mxCell id="A4Fo1HYIouLELJopiVxz-33" value="" style="endArrow=classic;html=1;rounded=0;" edge="1" parent="1">
          <mxGeometry width="50" height="50" relative="1" as="geometry">
            <mxPoint x="650" y="230" as="sourcePoint" />
            <mxPoint x="810" y="230" as="targetPoint" />
          </mxGeometry>
        </mxCell>
        <mxCell id="A4Fo1HYIouLELJopiVxz-34" value="selectSetAccount(Account)" style="edgeLabel;html=1;align=center;verticalAlign=middle;resizable=0;points=[];" vertex="1" connectable="0" parent="A4Fo1HYIouLELJopiVxz-33">
          <mxGeometry x="0.006" relative="1" as="geometry">
            <mxPoint as="offset" />
          </mxGeometry>
        </mxCell>
        <mxCell id="A4Fo1HYIouLELJopiVxz-41" value="" style="endArrow=classic;html=1;rounded=0;" edge="1" parent="1">
          <mxGeometry width="50" height="50" relative="1" as="geometry">
            <mxPoint x="500" y="380.52" as="sourcePoint" />
            <mxPoint x="650" y="380" as="targetPoint" />
          </mxGeometry>
        </mxCell>
        <mxCell id="A4Fo1HYIouLELJopiVxz-42" value="sendAccountSupervised(Account)" style="edgeLabel;html=1;align=center;verticalAlign=middle;resizable=0;points=[];" vertex="1" connectable="0" parent="A4Fo1HYIouLELJopiVxz-41">
          <mxGeometry x="0.006" relative="1" as="geometry">
            <mxPoint as="offset" />
          </mxGeometry>
        </mxCell>
        <mxCell id="A4Fo1HYIouLELJopiVxz-45" value="" style="endArrow=classic;html=1;rounded=0;" edge="1" parent="1">
          <mxGeometry width="50" height="50" relative="1" as="geometry">
            <mxPoint x="650" y="510.52" as="sourcePoint" />
            <mxPoint x="1120" y="510" as="targetPoint" />
          </mxGeometry>
        </mxCell>
        <mxCell id="A4Fo1HYIouLELJopiVxz-46" value="createNotification(notification)" style="edgeLabel;html=1;align=center;verticalAlign=middle;resizable=0;points=[];" vertex="1" connectable="0" parent="A4Fo1HYIouLELJopiVxz-45">
          <mxGeometry x="0.006" relative="1" as="geometry">
            <mxPoint as="offset" />
          </mxGeometry>
        </mxCell>
        <mxCell id="A4Fo1HYIouLELJopiVxz-47" value="" style="shape=umlActor;verticalLabelPosition=bottom;verticalAlign=top;html=1;outlineConnect=0;" vertex="1" parent="1">
          <mxGeometry x="1350" y="140" width="30" height="60" as="geometry" />
        </mxCell>
        <mxCell id="A4Fo1HYIouLELJopiVxz-48" style="edgeStyle=orthogonalEdgeStyle;rounded=0;orthogonalLoop=1;jettySize=auto;html=1;dashed=1;endArrow=none;endFill=0;" edge="1" parent="1" source="A4Fo1HYIouLELJopiVxz-49">
          <mxGeometry relative="1" as="geometry">
            <mxPoint x="1355" y="591.4814814814815" as="targetPoint" />
          </mxGeometry>
        </mxCell>
        <mxCell id="A4Fo1HYIouLELJopiVxz-49" value="Account Created" style="html=1;whiteSpace=wrap;" vertex="1" parent="1">
          <mxGeometry x="1300" y="215" width="110" height="50" as="geometry" />
        </mxCell>
        <mxCell id="A4Fo1HYIouLELJopiVxz-50" value="" style="endArrow=classic;html=1;rounded=0;" edge="1" parent="1">
          <mxGeometry width="50" height="50" relative="1" as="geometry">
            <mxPoint x="1227" y="549" as="sourcePoint" />
            <mxPoint x="1360" y="549" as="targetPoint" />
          </mxGeometry>
        </mxCell>
        <mxCell id="A4Fo1HYIouLELJopiVxz-51" value="notification" style="edgeLabel;html=1;align=center;verticalAlign=middle;resizable=0;points=[];" vertex="1" connectable="0" parent="A4Fo1HYIouLELJopiVxz-50">
          <mxGeometry x="0.006" relative="1" as="geometry">
            <mxPoint y="-10" as="offset" />
          </mxGeometry>
        </mxCell>
        <mxCell id="A4Fo1HYIouLELJopiVxz-52" value="" style="endArrow=classic;html=1;rounded=0;" edge="1" parent="1">
          <mxGeometry width="50" height="50" relative="1" as="geometry">
            <mxPoint x="75" y="320.52" as="sourcePoint" />
            <mxPoint x="499" y="320" as="targetPoint" />
          </mxGeometry>
        </mxCell>
        <mxCell id="A4Fo1HYIouLELJopiVxz-53" value="getAccountEmail(Account)" style="edgeLabel;html=1;align=center;verticalAlign=middle;resizable=0;points=[];" vertex="1" connectable="0" parent="A4Fo1HYIouLELJopiVxz-52">
          <mxGeometry x="0.006" relative="1" as="geometry">
            <mxPoint as="offset" />
          </mxGeometry>
        </mxCell>
        <mxCell id="A4Fo1HYIouLELJopiVxz-54" value="" style="endArrow=classic;html=1;rounded=0;" edge="1" parent="1">
          <mxGeometry width="50" height="50" relative="1" as="geometry">
            <mxPoint x="75" y="340.52" as="sourcePoint" />
            <mxPoint x="499" y="340" as="targetPoint" />
          </mxGeometry>
        </mxCell>
        <mxCell id="A4Fo1HYIouLELJopiVxz-55" value="getAccountSubscription(Account)" style="edgeLabel;html=1;align=center;verticalAlign=middle;resizable=0;points=[];" vertex="1" connectable="0" parent="A4Fo1HYIouLELJopiVxz-54">
          <mxGeometry x="0.006" relative="1" as="geometry">
            <mxPoint as="offset" />
          </mxGeometry>
        </mxCell>
        <mxCell id="A4Fo1HYIouLELJopiVxz-56" value="" style="endArrow=classic;html=1;rounded=0;" edge="1" parent="1">
          <mxGeometry width="50" height="50" relative="1" as="geometry">
            <mxPoint x="75" y="360.52" as="sourcePoint" />
            <mxPoint x="499" y="360" as="targetPoint" />
          </mxGeometry>
        </mxCell>
        <mxCell id="A4Fo1HYIouLELJopiVxz-57" value="getAccountPaymentCard(Account)" style="edgeLabel;html=1;align=center;verticalAlign=middle;resizable=0;points=[];" vertex="1" connectable="0" parent="A4Fo1HYIouLELJopiVxz-56">
          <mxGeometry x="0.006" relative="1" as="geometry">
            <mxPoint as="offset" />
          </mxGeometry>
        </mxCell>
      </root>
    </mxGraphModel>
  </diagram>
</mxfile>
